<?xml version="1.0" encoding="UTF-8"?>
<svg version="1.1" xmlns="http://www.w3.org/2000/svg" width="1537" height="501">
<path d="M0 0 C507.21 0 1014.42 0 1537 0 C1537 165.33 1537 330.66 1537 501 C1029.79 501 522.58 501 0 501 C0 335.67 0 170.34 0 0 Z " fill="#212121" transform="translate(0,0)"/>
<path d="M0 0 C6.45661427 4.50441354 12.63987575 9.4028642 18.82324219 14.27197266 C17.83324219 14.76697266 17.83324219 14.76697266 16.82324219 15.27197266 C15.00170898 14.59448242 15.00170898 14.59448242 12.77246094 13.46337891 C11.9394043 13.04983154 11.10634766 12.63628418 10.24804688 12.21020508 C9.34473633 11.75621338 8.44142578 11.30222168 7.51074219 10.83447266 C-19.74683359 -2.48681072 -49.49531158 -14.16734322 -80.17675781 -7.72802734 C-82.20552079 -6.78775037 -84.21211925 -5.79582662 -86.17675781 -4.72802734 C-87.66175781 -4.23302734 -87.66175781 -4.23302734 -89.17675781 -3.72802734 C-91.93740758 0.87305559 -92.33664971 4.97121646 -92.36425781 10.27197266 C-92.3784375 11.50947266 -92.39261719 12.74697266 -92.40722656 14.02197266 C-92.435468 17.41956691 -92.435468 17.41956691 -90.17675781 20.27197266 C-89.23058594 19.89685547 -88.28441406 19.52173828 -87.30957031 19.13525391 C-77.09603201 15.15474711 -66.81829572 11.90122752 -56.17675781 9.27197266 C-55.51740234 9.10536133 -54.85804688 8.93875 -54.17871094 8.76708984 C-35.047756 4.07660698 -12.87179788 3.82149229 4.82324219 13.27197266 C7.72143284 15.40313028 10.30454275 17.7080658 12.82324219 20.27197266 C13.48324219 20.93197266 14.14324219 21.59197266 14.82324219 22.27197266 C15.39429688 21.58232422 15.96535156 20.89267578 16.55371094 20.18212891 C25.69707261 9.58513263 36.30232659 0.16047514 50.86230469 -0.96240234 C62.36730264 -1.24788616 71.24555601 2.27064292 79.70996094 9.97900391 C96.85058479 28.57705603 102.26078742 57.72330383 102.07324219 82.20947266 C102.06526611 84.09134277 102.06526611 84.09134277 102.05712891 86.01123047 C101.97801357 93.87669734 101.66222801 101.68811475 100.94824219 109.52197266 C100.83077637 110.84249634 100.83077637 110.84249634 100.7109375 112.18969727 C100.49548157 114.22724169 100.17122132 116.25283446 99.82324219 118.27197266 C99.16324219 118.60197266 98.50324219 118.93197266 97.82324219 119.27197266 C97.67290527 117.76352783 97.67290527 117.76352783 97.51953125 116.22460938 C93.74031641 63.76636217 93.74031641 63.76636217 66.82324219 20.27197266 C61.77031074 17.18516239 56.62724968 16.61668149 50.82324219 17.27197266 C47.58278347 18.93227278 47.58278347 18.93227278 44.82324219 21.27197266 C43.89511719 21.95259766 42.96699219 22.63322266 42.01074219 23.33447266 C39.58271332 25.15938767 39.58271332 25.15938767 38.82324219 28.27197266 C39.39816406 28.54009766 39.97308594 28.80822266 40.56542969 29.08447266 C63.60101705 41.2000757 82.92602448 67.76231196 91.32324219 91.89697266 C94.02010835 101.54576047 94.19409648 111.16602621 89.82324219 120.27197266 C91.77230469 120.45759766 91.77230469 120.45759766 93.76074219 120.64697266 C100.34183448 121.38281132 106.75517298 122.5315543 112.82324219 125.27197266 C112.82324219 125.93197266 112.82324219 126.59197266 112.82324219 127.27197266 C113.62761719 127.43697266 114.43199219 127.60197266 115.26074219 127.77197266 C124.36220457 131.60416734 129.0869607 138.44894648 132.82324219 147.27197266 C133.18804687 147.90748047 133.55285156 148.54298828 133.92871094 149.19775391 C137.24148495 156.87933907 134.67148318 166.6834805 132.07714844 174.21337891 C119.14548201 205.75697645 85.51012564 225.16377715 55.82324219 238.27197266 C54.40978516 238.91972656 54.40978516 238.91972656 52.96777344 239.58056641 C50.82324219 240.27197266 50.82324219 240.27197266 47.82324219 239.27197266 C48.58447388 238.75981201 48.58447388 238.75981201 49.36108398 238.23730469 C64.21668309 228.21946591 78.44774526 218.024905 91.41748047 205.61474609 C92.63554878 204.45125604 93.86690444 203.30170689 95.10058594 202.15478516 C108.65119972 189.22132804 117.3909866 174.00436814 118.82324219 155.27197266 C118.16324219 155.27197266 117.50324219 155.27197266 116.82324219 155.27197266 C116.68208984 154.37671875 116.68208984 154.37671875 116.53808594 153.46337891 C115.19316554 149.3404262 111.4445689 147.3672946 107.82324219 145.27197266 C104.53990432 144.01918133 101.24356327 143.07098209 97.82324219 142.27197266 C97.79746094 143.00158203 97.77167969 143.73119141 97.74511719 144.48291016 C96.75938201 162.62939861 91.67701587 179.93805071 83.82324219 196.27197266 C83.44425781 197.10470703 83.06527344 197.93744141 82.67480469 198.79541016 C75.92486257 213.15602527 65.54869454 226.14626844 50.51074219 232.08447266 C46.82324219 233.27197266 46.82324219 233.27197266 43.82324219 233.27197266 C44.17257812 234.22458984 44.52191406 235.17720703 44.88183594 236.15869141 C45.34165885 237.42555045 45.80128381 238.69248136 46.26074219 239.95947266 C46.49083984 240.5853125 46.7209375 241.21115234 46.95800781 241.85595703 C51.0641988 253.22236977 51.17735031 264.91750966 46.82324219 276.27197266 C42.04650686 285.14305255 35.00494821 290.48292241 25.82324219 294.27197266 C24.96472656 294.63935547 24.10621094 295.00673828 23.22167969 295.38525391 C9.06935603 299.07787169 -7.43710005 296.69496576 -21.17675781 292.27197266 C-23.05234375 291.68802734 -23.05234375 291.68802734 -24.96582031 291.09228516 C-41.42137972 285.59657858 -57.59729085 277.04189473 -71.17675781 266.27197266 C-72.39695318 265.46654726 -73.62476095 264.67236567 -74.86425781 263.89697266 C-75.62738281 263.36072266 -76.39050781 262.82447266 -77.17675781 262.27197266 C-77.17675781 261.61197266 -77.17675781 260.95197266 -77.17675781 260.27197266 C-78.49675781 259.61197266 -79.81675781 258.95197266 -81.17675781 258.27197266 C-78.17675781 257.27197266 -78.17675781 257.27197266 -74.79785156 258.89697266 C-73.3998709 259.68253207 -72.00557658 260.47467371 -70.61425781 261.27197266 C-49.18742108 273.07704266 -24.42034425 281.39449135 0.13574219 281.52197266 C1.11736328 281.54259766 2.09898437 281.56322266 3.11035156 281.58447266 C10.94055754 281.62592974 18.50632976 280.95373164 24.76074219 275.89697266 C25.44136719 275.03072266 26.12199219 274.16447266 26.82324219 273.27197266 C27.42136719 272.55009766 28.01949219 271.82822266 28.63574219 271.08447266 C31.27947785 264.82299345 29.81858799 257.80593622 28.82324219 251.27197266 C27.35177734 251.83464844 27.35177734 251.83464844 25.85058594 252.40869141 C7.87708093 259.2445089 -9.75580093 265.44180222 -29.17675781 266.27197266 C-30.82417969 266.35125 -30.82417969 266.35125 -32.50488281 266.43212891 C-47.45836718 266.81770081 -63.7806115 264.17023428 -75.07519531 253.54541016 C-75.76871094 252.79517578 -76.46222656 252.04494141 -77.17675781 251.27197266 C-80.43624631 252.66184113 -82.13164456 254.18412682 -84.30175781 256.95947266 C-91.62845816 265.54617879 -102.17653039 272.19265203 -113.47753906 273.71728516 C-123.18059191 274.05934342 -131.5903703 271.40564766 -139.17675781 265.27197266 C-153.8609223 250.77435835 -159.6881062 233.25663257 -163.17675781 213.27197266 C-163.38171875 212.18787109 -163.58667969 211.10376953 -163.79785156 209.98681641 C-166.87123178 191.18620777 -165.94322365 171.88010745 -162.17675781 153.27197266 C-161.51675781 153.27197266 -160.85675781 153.27197266 -160.17675781 153.27197266 C-160.14235596 153.90772217 -160.1079541 154.54347168 -160.07250977 155.19848633 C-158.23387184 187.20788985 -155.8455744 227.25944873 -131.00097656 250.85400391 C-125.72219823 254.95720848 -120.67885989 254.99242718 -114.17675781 254.27197266 C-108.20536071 252.50266981 -104.77802067 249.22370909 -101.17675781 244.27197266 C-101.85222656 244.06701172 -102.52769531 243.86205078 -103.22363281 243.65087891 C-107.21964248 241.78501725 -110.15050985 239.12725179 -113.42675781 236.20947266 C-114.09352539 235.62093506 -114.76029297 235.03239746 -115.44726562 234.42602539 C-131.72564788 219.96008565 -146.20136448 203.3017476 -153.17675781 182.27197266 C-153.53511719 181.19947266 -153.89347656 180.12697266 -154.26269531 179.02197266 C-155.29226135 174.79811201 -155.47285975 171.03152912 -155.42675781 166.70947266 C-155.43835938 165.61602539 -155.43835938 165.61602539 -155.45019531 164.50048828 C-155.43414966 160.04380927 -154.84792098 156.46977538 -153.17675781 152.27197266 C-154.24990234 152.14242187 -154.24990234 152.14242187 -155.34472656 152.01025391 C-169.93788767 149.95248604 -182.15501737 144.96543759 -191.63378906 133.44775391 C-198.09396823 124.33808354 -198.3721706 114.37292532 -196.77441406 103.54541016 C-190.56128188 78.61166401 -165.89480461 59.8624676 -145.06420898 47.25488281 C-135.24614071 41.43869368 -125.05468863 35.82953494 -114.17675781 32.27197266 C-112.69175781 32.76697266 -112.69175781 32.76697266 -111.17675781 33.27197266 C-111.67900879 33.60817627 -112.18125977 33.94437988 -112.69873047 34.29077148 C-155.30637687 62.86499496 -155.30637687 62.86499496 -180.17675781 106.27197266 C-180.77491056 111.37018153 -180.5035031 116.29667782 -179.17675781 121.27197266 C-178.51675781 121.27197266 -177.85675781 121.27197266 -177.17675781 121.27197266 C-176.55800781 122.01447266 -175.93925781 122.75697266 -175.30175781 123.52197266 C-171.37841342 127.70766835 -165.52547692 128.74498586 -160.17675781 130.27197266 C-160.21027344 128.98162109 -160.24378906 127.69126953 -160.27832031 126.36181641 C-160.27246927 121.3679533 -159.56498961 116.71393249 -158.55175781 111.83447266 C-158.37354492 110.97047852 -158.19533203 110.10648438 -158.01171875 109.21630859 C-152.90258928 85.5379573 -142.59033406 58.00123746 -121.42675781 44.27197266 C-116.39119025 41.20940525 -112.1699968 38.92950186 -106.17675781 39.27197266 C-106.44230469 38.73830078 -106.70785156 38.20462891 -106.98144531 37.65478516 C-112.62738188 25.74474378 -114.71529122 11.19653227 -110.73925781 -1.60302734 C-106.9458085 -10.44109874 -100.41686175 -16.97894824 -91.61816406 -20.76708984 C-90.8125 -21.08419922 -90.00683594 -21.40130859 -89.17675781 -21.72802734 C-88.16935547 -22.20369141 -88.16935547 -22.20369141 -87.14160156 -22.68896484 C-60.2897769 -33.96776596 -22.00893479 -14.66606119 0 0 Z " fill="#6583EB" transform="translate(230.1767578125,150.72802734375)"/>
<path d="M0 0 C20.34483236 16.4490134 33.83304094 38.49912283 42 63 C42.65793808 70.92345431 43.20695279 78.03622167 38.2890625 84.6796875 C37 86 37 86 35 87 C35.68924561 87.04487549 36.37849121 87.08975098 37.08862305 87.13598633 C66.23471347 89.09074375 66.23471347 89.09074375 78 94 C78 94.66 78 95.32 78 96 C78.804375 96.165 79.60875 96.33 80.4375 96.5 C89.53896238 100.33219469 94.26371851 107.17697383 98 116 C98.36480469 116.63550781 98.72960937 117.27101563 99.10546875 117.92578125 C102.41824277 125.60736642 99.848241 135.41150784 97.25390625 142.94140625 C84.32223982 174.4850038 50.68688345 193.89180449 21 207 C20.05769531 207.43183594 19.11539063 207.86367188 18.14453125 208.30859375 C16 209 16 209 13 208 C13.50748779 207.65855957 14.01497559 207.31711914 14.5378418 206.96533203 C29.39344091 196.94749326 43.62450308 186.75293234 56.59423828 174.34277344 C57.81230659 173.17928339 59.04366225 172.02973424 60.27734375 170.8828125 C73.82795753 157.94935539 82.56774441 142.73239548 84 124 C83.34 124 82.68 124 82 124 C81.90589844 123.40316406 81.81179688 122.80632812 81.71484375 122.19140625 C80.36992335 118.06845355 76.62132671 116.09532194 73 114 C69.71666213 112.74720867 66.42032108 111.79900943 63 111 C62.97421875 111.72960937 62.9484375 112.45921875 62.921875 113.2109375 C61.93613982 131.35742595 56.85377368 148.66607805 49 165 C48.62101563 165.83273437 48.24203125 166.66546875 47.8515625 167.5234375 C41.10162038 181.88405261 30.72545236 194.87429578 15.6875 200.8125 C12 202 12 202 9 202 C9.34933594 202.95261719 9.69867188 203.90523437 10.05859375 204.88671875 C10.51841666 206.15357779 10.97804162 207.4205087 11.4375 208.6875 C11.66759766 209.31333984 11.89769531 209.93917969 12.13476562 210.58398438 C16.24095662 221.95039712 16.35410813 233.645537 12 245 C7.22326467 253.8710799 0.18170602 259.21094976 -9 263 C-9.85851562 263.36738281 -10.71703125 263.73476563 -11.6015625 264.11328125 C-25.75388616 267.80589903 -42.26034224 265.4229931 -56 261 C-57.25039062 260.61070312 -58.50078125 260.22140625 -59.7890625 259.8203125 C-76.2446219 254.32460592 -92.42053303 245.76992208 -106 235 C-107.22019537 234.1945746 -108.44800314 233.40039302 -109.6875 232.625 C-110.450625 232.08875 -111.21375 231.5525 -112 231 C-112 230.34 -112 229.68 -112 229 C-113.32 228.34 -114.64 227.68 -116 227 C-113 226 -113 226 -109.62109375 227.625 C-108.22311309 228.41055942 -106.82881877 229.20270105 -105.4375 230 C-84.01066326 241.80507 -59.24358644 250.12251869 -34.6875 250.25 C-33.70587891 250.270625 -32.72425781 250.29125 -31.71289062 250.3125 C-23.88268465 250.35395708 -16.31691243 249.68175898 -10.0625 244.625 C-9.381875 243.75875 -8.70125 242.8925 -8 242 C-7.401875 241.278125 -6.80375 240.55625 -6.1875 239.8125 C-3.54376433 233.55102079 -5.0046542 226.53396356 -6 220 C-7.47146484 220.56267578 -7.47146484 220.56267578 -8.97265625 221.13671875 C-26.94616126 227.97253624 -44.57904312 234.16982956 -64 235 C-65.64742187 235.07927734 -65.64742187 235.07927734 -67.328125 235.16015625 C-82.28160937 235.54572816 -98.60385369 232.89826162 -109.8984375 222.2734375 C-110.59195313 221.52320313 -111.28546875 220.77296875 -112 220 C-115.36591866 221.44253657 -117.51047079 223.33264727 -120 226 C-120.06823975 225.44135254 -120.13647949 224.88270508 -120.20678711 224.30712891 C-121.31850687 221.07359496 -123.24133228 219.4563361 -125.69140625 217.0859375 C-126.38845924 216.40236679 -126.38845924 216.40236679 -127.09959412 215.70498657 C-128.58025057 214.25429058 -130.07042012 212.81393731 -131.5625 211.375 C-133.52819007 209.47212868 -135.48622665 207.56218814 -137.44140625 205.6484375 C-138.31482666 204.80458496 -139.18824707 203.96073242 -140.08813477 203.09130859 C-142 201 -142 201 -142 199 C-142.99 198.67 -143.98 198.34 -145 198 C-146.29931641 196.63989258 -146.29931641 196.63989258 -147.6015625 194.89453125 C-148.08737793 194.24790527 -148.57319336 193.6012793 -149.07373047 192.93505859 C-149.84160889 191.88439209 -149.84160889 191.88439209 -150.625 190.8125 C-151.15625488 190.09143066 -151.68750977 189.37036133 -152.23486328 188.62744141 C-160.30233392 177.57740724 -167.01796899 166.78993535 -172 154 C-172.37125 153.23429688 -172.7425 152.46859375 -173.125 151.6796875 C-175.48012774 144.46710879 -175.92572518 133.84642235 -172.50390625 127.01171875 C-165.60132515 119.16200594 -155.83128982 119.63202615 -146 119 C-132.35580685 118.81373115 -120.03778297 123.83193924 -107.625 128.9375 C-106.60245117 129.35636475 -105.57990234 129.77522949 -104.52636719 130.20678711 C-99.22871278 132.4378114 -94.36316356 134.80207052 -89.63427734 138.08422852 C-87.87604022 139.24441874 -87.87604022 139.24441874 -85 139 C-84.67 138.01 -84.34 137.02 -84 136 C-83.01 135.67 -82.02 135.34 -81 135 C-79.64264858 133.69112542 -78.31494512 132.35147138 -77 131 C-75.24555339 129.46636475 -73.46817132 127.96325298 -71.68359375 126.46484375 C-69.9851574 125.04712859 -69.9851574 125.04712859 -68.59765625 123.44140625 C-66.5729195 121.61468776 -64.53836227 120.9856998 -62 120 C-60.04272049 118.82397592 -58.1068959 117.61188927 -56.1875 116.375 C-51.13531226 113.18659013 -45.97420538 110.3468014 -40.625 107.6875 C-39.97168701 107.36249512 -39.31837402 107.03749023 -38.64526367 106.70263672 C-38.01209229 106.39213379 -37.3789209 106.08163086 -36.7265625 105.76171875 C-36.11200195 105.45927246 -35.49744141 105.15682617 -34.86425781 104.84521484 C-33 104 -33 104 -31.00292969 103.31494141 C-28.83451661 102.61132466 -28.83451661 102.61132466 -26 101 C-24.90724707 98.33715814 -24.90724707 98.33715814 -25 95 C-24.96680664 94.29182129 -24.93361328 93.58364258 -24.89941406 92.85400391 C-24.82356002 91.22784092 -24.7612356 89.60100811 -24.71020508 87.97387695 C-23.84373139 60.90960847 -20.22907607 20.22907607 0 0 Z M-93 145 C-92.67 145.66 -92.34 146.32 -92 147 C-91.67 146.34 -91.34 145.68 -91 145 C-91.66 145 -92.32 145 -93 145 Z " fill="#7773E8" transform="translate(265,182)"/>
<path d="M0 0 C6.45661427 4.50441354 12.63987575 9.4028642 18.82324219 14.27197266 C17.83324219 14.76697266 17.83324219 14.76697266 16.82324219 15.27197266 C15.00170898 14.59448242 15.00170898 14.59448242 12.77246094 13.46337891 C11.9394043 13.04983154 11.10634766 12.63628418 10.24804688 12.21020508 C9.34473633 11.75621338 8.44142578 11.30222168 7.51074219 10.83447266 C-19.74683359 -2.48681072 -49.49531158 -14.16734322 -80.17675781 -7.72802734 C-82.20552079 -6.78775037 -84.21211925 -5.79582662 -86.17675781 -4.72802734 C-87.66175781 -4.23302734 -87.66175781 -4.23302734 -89.17675781 -3.72802734 C-93.01363835 2.66677355 -93.27842177 10.02648072 -92.17675781 17.27197266 C-89.24074697 28.07670245 -82.87462256 37.46939694 -76.17675781 46.27197266 C-75.18675781 47.59648437 -75.18675781 47.59648437 -74.17675781 48.94775391 C-68.36957027 56.47602324 -61.92076478 63.85110119 -54.05175781 69.27197266 C-53.10300781 69.93197266 -52.15425781 70.59197266 -51.17675781 71.27197266 C-51.17675781 71.93197266 -51.17675781 72.59197266 -51.17675781 73.27197266 C-50.18675781 73.55041016 -50.18675781 73.55041016 -49.17675781 73.83447266 C-46.46311949 75.13475769 -45.08206361 76.1518585 -42.92675781 78.14697266 C-38.72649524 81.96905067 -34.19376386 85.20451626 -29.55175781 88.45947266 C-28.82311523 88.9704248 -28.09447266 89.48137695 -27.34375 90.0078125 C-24.16939823 92.22118169 -20.99127097 94.38930491 -17.71191406 96.44384766 C-15.17675781 98.27197266 -15.17675781 98.27197266 -14.23925781 101.33447266 C-14.17675781 104.27197266 -14.17675781 104.27197266 -15.17675781 107.27197266 C-15.38635319 108.6778289 -15.56155036 110.08902259 -15.71191406 111.50244141 C-15.84243164 112.70610352 -15.84243164 112.70610352 -15.97558594 113.93408203 C-16.10610352 115.18415039 -16.10610352 115.18415039 -16.23925781 116.45947266 C-16.33013672 117.30445313 -16.42101562 118.14943359 -16.51464844 119.02001953 C-16.73831901 121.1036875 -16.95792932 123.1877906 -17.17675781 125.27197266 C-21.74323213 124.72467985 -25.02652591 122.73707842 -28.80175781 120.27197266 C-33.27758652 117.36513607 -33.27758652 117.36513607 -38.17675781 115.27197266 C-38.17675781 114.61197266 -38.17675781 113.95197266 -38.17675781 113.27197266 C-39.82675781 112.94197266 -41.47675781 112.61197266 -43.17675781 112.27197266 C-43.17675781 111.61197266 -43.17675781 110.95197266 -43.17675781 110.27197266 C-44.0159375 110.14242187 -44.0159375 110.14242187 -44.87207031 110.01025391 C-47.87384291 109.04866913 -49.64198523 107.4920316 -52.05175781 105.45947266 C-53.01984375 104.64349609 -53.98792969 103.82751953 -54.98535156 102.98681641 C-55.50210449 102.5457959 -56.01885742 102.10477539 -56.55126953 101.65039062 C-58.21666117 100.23813451 -59.89991559 98.84972419 -61.58691406 97.46337891 C-74.65337013 86.63319557 -85.83693073 74.48395363 -95.17675781 60.27197266 C-95.17675781 59.61197266 -95.17675781 58.95197266 -95.17675781 58.27197266 C-101.08482762 56.58783322 -106.91743789 56.60975819 -112.80175781 58.33447266 C-117.14920345 60.83022849 -120.60569682 63.77190691 -124.17675781 67.27197266 C-124.75296875 67.83529297 -125.32917969 68.39861328 -125.92285156 68.97900391 C-137.33469737 81.07608756 -143.71927459 97.11213509 -149.36425781 112.45947266 C-149.70980713 113.39863525 -150.05535645 114.33779785 -150.41137695 115.30541992 C-152.31607197 120.58337232 -153.92335594 125.80199832 -155.17675781 131.27197266 C-137.66964128 131.08726804 -137.66964128 131.08726804 -120.56738281 127.79541016 C-117.91253893 127.21412081 -116.76279333 127.60038337 -114.17675781 128.27197266 C-112.73789538 128.4008563 -111.29564652 128.4948764 -109.85253906 128.56103516 C-82.99333197 130.14862114 -54.91881316 138.72890368 -32.17675781 153.27197266 C-33.35018198 156.79224515 -34.20785884 157.21023726 -37.17675781 159.27197266 C-42.38745393 163.38568012 -47.56512633 167.48297073 -52.17675781 172.27197266 C-52.81097656 171.70220703 -53.44519531 171.13244141 -54.09863281 170.54541016 C-57.98127793 167.67777125 -62.02272066 165.8344133 -66.42675781 163.89697266 C-67.30775146 163.50630615 -68.18874512 163.11563965 -69.09643555 162.71313477 C-83.95898134 156.21870039 -98.41368275 150.1858403 -114.89550781 151.93212891 C-117.07672925 152.15804113 -119.26661035 152.3121934 -121.45800781 152.39306641 C-128.10210253 152.58494368 -128.10210253 152.58494368 -133.80175781 155.64697266 C-139.20481237 161.6187698 -138.95966719 167.26515571 -138.74316406 174.93994141 C-137.72099294 188.98646837 -129.23628634 202.09633513 -121.17675781 213.27197266 C-120.685625 213.95485352 -120.19449219 214.63773438 -119.68847656 215.34130859 C-117.15049639 218.84441398 -114.58381914 222.32620259 -111.97363281 225.77587891 C-111.55436523 226.33090088 -111.13509766 226.88592285 -110.703125 227.45776367 C-108.66666807 229.87825494 -106.43174765 232.05446477 -104.17675781 234.27197266 C-97.51009115 240.93863932 -90.84342448 247.60530599 -84.17675781 254.27197266 C-87.35977604 262.83845113 -94.97437037 266.98393088 -102.98925781 270.77197266 C-111.71881471 274.24104738 -119.74642285 274.83581233 -128.61425781 271.52197266 C-141.52689731 265.50161019 -150.81658502 254.42557043 -155.77050781 241.13134766 C-158.99968381 232.00934273 -161.51139728 222.81195188 -163.17675781 213.27197266 C-163.38171875 212.18787109 -163.58667969 211.10376953 -163.79785156 209.98681641 C-166.87123178 191.18620777 -165.94322365 171.88010745 -162.17675781 153.27197266 C-161.51675781 153.27197266 -160.85675781 153.27197266 -160.17675781 153.27197266 C-160.14235596 153.90772217 -160.1079541 154.54347168 -160.07250977 155.19848633 C-158.23387184 187.20788985 -155.8455744 227.25944873 -131.00097656 250.85400391 C-125.72219823 254.95720848 -120.67885989 254.99242718 -114.17675781 254.27197266 C-108.20536071 252.50266981 -104.77802067 249.22370909 -101.17675781 244.27197266 C-101.85222656 244.06701172 -102.52769531 243.86205078 -103.22363281 243.65087891 C-107.21964248 241.78501725 -110.15050985 239.12725179 -113.42675781 236.20947266 C-114.09352539 235.62093506 -114.76029297 235.03239746 -115.44726562 234.42602539 C-131.72564788 219.96008565 -146.20136448 203.3017476 -153.17675781 182.27197266 C-153.53511719 181.19947266 -153.89347656 180.12697266 -154.26269531 179.02197266 C-155.29226135 174.79811201 -155.47285975 171.03152912 -155.42675781 166.70947266 C-155.43835938 165.61602539 -155.43835938 165.61602539 -155.45019531 164.50048828 C-155.43414966 160.04380927 -154.84792098 156.46977538 -153.17675781 152.27197266 C-154.24990234 152.14242187 -154.24990234 152.14242187 -155.34472656 152.01025391 C-169.93788767 149.95248604 -182.15501737 144.96543759 -191.63378906 133.44775391 C-198.09396823 124.33808354 -198.3721706 114.37292532 -196.77441406 103.54541016 C-190.56128188 78.61166401 -165.89480461 59.8624676 -145.06420898 47.25488281 C-135.24614071 41.43869368 -125.05468863 35.82953494 -114.17675781 32.27197266 C-112.69175781 32.76697266 -112.69175781 32.76697266 -111.17675781 33.27197266 C-111.67900879 33.60817627 -112.18125977 33.94437988 -112.69873047 34.29077148 C-155.30637687 62.86499496 -155.30637687 62.86499496 -180.17675781 106.27197266 C-180.77491056 111.37018153 -180.5035031 116.29667782 -179.17675781 121.27197266 C-178.51675781 121.27197266 -177.85675781 121.27197266 -177.17675781 121.27197266 C-176.55800781 122.01447266 -175.93925781 122.75697266 -175.30175781 123.52197266 C-171.37841342 127.70766835 -165.52547692 128.74498586 -160.17675781 130.27197266 C-160.21027344 128.98162109 -160.24378906 127.69126953 -160.27832031 126.36181641 C-160.27246927 121.3679533 -159.56498961 116.71393249 -158.55175781 111.83447266 C-158.37354492 110.97047852 -158.19533203 110.10648438 -158.01171875 109.21630859 C-152.90258928 85.5379573 -142.59033406 58.00123746 -121.42675781 44.27197266 C-116.39119025 41.20940525 -112.1699968 38.92950186 -106.17675781 39.27197266 C-106.44230469 38.73830078 -106.70785156 38.20462891 -106.98144531 37.65478516 C-112.62738188 25.74474378 -114.71529122 11.19653227 -110.73925781 -1.60302734 C-106.9458085 -10.44109874 -100.41686175 -16.97894824 -91.61816406 -20.76708984 C-90.8125 -21.08419922 -90.00683594 -21.40130859 -89.17675781 -21.72802734 C-88.16935547 -22.20369141 -88.16935547 -22.20369141 -87.14160156 -22.68896484 C-60.2897769 -33.96776596 -22.00893479 -14.66606119 0 0 Z M-58.17675781 176.27197266 C-57.18675781 176.76697266 -57.18675781 176.76697266 -56.17675781 177.27197266 C-57.16675781 177.76697266 -57.16675781 177.76697266 -58.17675781 178.27197266 C-58.17675781 177.61197266 -58.17675781 176.95197266 -58.17675781 176.27197266 Z " fill="#3AA7F2" transform="translate(230.1767578125,150.72802734375)"/>
<path d="M0 0 C11.55 0 23.1 0 35 0 C38.4375 15.375 38.4375 15.375 39.51733398 20.22412109 C39.79907471 21.47789551 40.08081543 22.73166992 40.37109375 24.0234375 C40.51712036 24.68255127 40.66314697 25.34166504 40.81359863 26.02075195 C41.61790002 29.60792483 41.61790002 29.60792483 43 33 C43.48315674 32.00033203 43.96631348 31.00066406 44.46411133 29.97070312 C57.83644987 3.10621874 57.83644987 3.10621874 67.17852783 -0.94464111 C77.74281274 -3.78663826 89.40814532 -1.93687368 100 0 C97.84279651 10.65345189 95.49173465 21.22109202 92.79736328 31.75195312 C90.92874743 39.12138893 89.39280153 46.52643081 88 54 C89.65 54.33 91.3 54.66 93 55 C91.75565078 63.26188932 90.04268896 71.29230369 87.9375 79.375 C87.40275143 81.44474625 86.87013014 83.51504351 86.33984375 85.5859375 C85.98974243 86.93244385 85.98974243 86.93244385 85.63256836 88.30615234 C84.95851319 91.1766752 84.48474713 94.09151722 84 97 C73.11 97 62.22 97 51 97 C53.25 84.625 53.25 84.625 54.2890625 80.11328125 C54.50820313 79.15615234 54.72734375 78.19902344 54.953125 77.21289062 C55.17484375 76.25576172 55.3965625 75.29863281 55.625 74.3125 C55.85445312 73.31283203 56.08390625 72.31316406 56.3203125 71.28320312 C56.87799733 68.85495042 57.43791641 66.42723754 58 64 C57.7009375 64.86625 57.401875 65.7325 57.09375 66.625 C55.26159941 70.50484831 53.70251275 73.73108213 50 76 C42.16378791 77.62881265 33.90817941 76.6714492 26 76 C25.34 72.37 24.68 68.74 24 65 C22.42610407 68.93473982 21.38463499 72.30091341 20.4921875 76.39453125 C20.2535498 77.47839111 20.01491211 78.56225098 19.76904297 79.67895508 C19.47400879 81.0430249 19.17897461 82.40709473 18.875 83.8125 C17.92625 88.164375 16.9775 92.51625 16 97 C5.44 97 -5.12 97 -16 97 C-13.24837284 82.93612784 -10.24331912 68.9582845 -7 55 C-8.65 55 -10.3 55 -12 55 C-10.48894394 46.00697967 -8.53329433 37.1242842 -6.54101562 28.22875977 C-5.9988456 25.80734425 -5.46010804 23.38518397 -4.921875 20.96289062 C-4.57311685 19.39839286 -4.2241652 17.83393822 -3.875 16.26953125 C-3.71660645 15.55787308 -3.55821289 14.8462149 -3.39501953 14.11299133 C-3.24145996 13.42835312 -3.08790039 12.7437149 -2.9296875 12.03833008 C-2.73221924 11.1554406 -2.73221924 11.1554406 -2.53076172 10.25471497 C-1.72401489 6.82759486 -0.85391805 3.41567221 0 0 Z " fill="#0FCEFA" transform="translate(468,187)"/>
<path d="M0 0 C10.89 0 21.78 0 33 0 C32.21625 3.96 31.4325 7.92 30.625 12 C30.38217285 13.23234375 30.1393457 14.4646875 29.88916016 15.734375 C29.69112793 16.72953125 29.4930957 17.7246875 29.2890625 18.75 C29.09006348 19.75546875 28.89106445 20.7609375 28.68603516 21.796875 C27.88179074 25.55192365 26.93138731 29.27445077 26 33 C31.94 32.67 37.88 32.34 44 32 C44.49371094 29.77378906 44.98742188 27.54757813 45.49609375 25.25390625 C45.97510877 23.10583961 46.45538736 20.95805918 46.93579102 18.81030273 C47.2697982 17.31385304 47.60248445 15.8171079 47.93383789 14.32006836 C48.4094766 12.17222899 48.88980667 10.025486 49.37109375 7.87890625 C49.51904892 7.20598038 49.66700409 6.5330545 49.81944275 5.83973694 C50.88612829 1.11387171 50.88612829 1.11387171 52 0 C54.3756852 -0.0883967 56.72208674 -0.11530305 59.09765625 -0.09765625 C60.16094398 -0.09553383 60.16094398 -0.09553383 61.24571228 -0.09336853 C63.51801712 -0.08775443 65.79022475 -0.07519963 68.0625 -0.0625 C69.59960796 -0.05748681 71.13671745 -0.05292359 72.67382812 -0.04882812 C76.44925642 -0.03778042 80.22461171 -0.02050641 84 0 C83.380527 5.51686719 82.47801656 10.8563647 81.2578125 16.26953125 C81.08877411 17.03118088 80.91973572 17.79283051 80.74557495 18.57756042 C80.38929911 20.17881456 80.03121147 21.77966657 79.67138672 23.38012695 C79.1289995 25.79469527 78.59335553 28.21068591 78.05859375 30.62695312 C76.23684999 38.81026652 74.3312109 46.94318371 72 55 C73.98 55 75.96 55 78 55 C77.2679966 62.30195982 75.6847541 69.34963299 74.0625 76.5 C73.79759766 77.68464844 73.53269531 78.86929688 73.25976562 80.08984375 C71.91339248 86.08337582 70.49038373 92.03846506 69 98 C58.11 98 47.22 98 36 98 C38.25214234 85.61321714 38.25214234 85.61321714 39.47265625 80.34375 C39.73240234 79.2196875 39.99214844 78.095625 40.25976562 76.9375 C40.52466797 75.803125 40.78957031 74.66875 41.0625 73.5 C41.4656543 71.75203125 41.4656543 71.75203125 41.87695312 69.96875 C43.86255952 61.41232143 43.86255952 61.41232143 45 58 C38.73 58 32.46 58 26 58 C25.67 60.31 25.34 62.62 25 65 C24.49333054 67.47001363 23.96078323 69.93482107 23.40625 72.39453125 C23.25466431 73.06796066 23.10307861 73.74139008 22.94689941 74.43522644 C22.62887463 75.84473725 22.30948197 77.25394009 21.98876953 78.6628418 C21.4975758 80.82316186 21.01219076 82.98473208 20.52734375 85.14648438 C20.21649017 86.52091126 19.9053042 87.89526301 19.59375 89.26953125 C19.31208984 90.51323486 19.03042969 91.75693848 18.74023438 93.03833008 C18 96 18 96 17 98 C6.11 98 -4.78 98 -16 98 C-14.77795044 91.88975218 -13.539081 85.84638965 -12.0546875 79.8046875 C-11.87994904 79.08636749 -11.70521057 78.36804749 -11.525177 77.62796021 C-10.97703034 75.37650207 -10.42607405 73.12574318 -9.875 70.875 C-9.49851002 69.33077496 -9.12220649 67.78650446 -8.74609375 66.2421875 C-7.83287672 62.49426427 -6.91714268 58.74696444 -6 55 C-7.98 55 -9.96 55 -12 55 C-11.33424785 48.67535462 -10.08754153 42.62226973 -8.625 36.4375 C-6.84956129 28.80884075 -5.19256486 21.18820922 -3.7734375 13.484375 C-2.76200361 8.92781425 -1.34118666 4.47062219 0 0 Z " fill="#D521D7" transform="translate(1246,187)"/>
<path d="M0 0 C10.89 0 21.78 0 33 0 C36.02398956 25.70391127 36.02398956 25.70391127 37.1875 37.625 C37.27112793 38.45733154 37.35475586 39.28966309 37.44091797 40.1472168 C37.91321168 45.12255177 38.07433787 50.00220754 38 55 C40.31 55 42.62 55 45 55 C46.60144451 62.16720102 47.53354159 69.24683819 48.125 76.5625 C48.21136719 77.53896484 48.29773437 78.51542969 48.38671875 79.52148438 C48.88328712 85.41330747 49 91.03987716 49 97 C38.11 97 27.22 97 16 97 C14.875 88 14.875 88 14.9375 83.5 C14.94652344 82.6440625 14.95554687 81.788125 14.96484375 80.90625 C14.97644531 80.2771875 14.98804688 79.648125 15 79 C5.35487916 78.00136372 5.35487916 78.00136372 -4 80 C-8.83379077 84.65113384 -10.58315365 90.84388193 -13 97 C-23.89 97 -34.78 97 -46 97 C-44.6034487 93.50862176 -43.24608847 90.45310323 -41.4609375 87.19140625 C-40.7189209 85.83233154 -40.7189209 85.83233154 -39.96191406 84.44580078 C-39.1763916 83.01856689 -39.1763916 83.01856689 -38.375 81.5625 C-37.84100586 80.58780762 -37.30701172 79.61311523 -36.75683594 78.60888672 C-32.58985188 71.02287094 -28.3435801 63.48628805 -24 56 C-25.98 55.67 -27.96 55.34 -30 55 C-28.53849338 51.10623772 -26.73841915 47.54437134 -24.7265625 43.90625 C-24.40634125 43.32574387 -24.08612 42.74523773 -23.75619507 42.1471405 C-22.71554228 40.26303811 -21.67045933 38.38143893 -20.625 36.5 C-19.90616548 35.20162557 -19.18741611 33.90320399 -18.46875 32.60473633 C-12.41250053 21.67867326 -6.23147569 10.82718901 0 0 Z " fill="#F209D4" transform="translate(1377,187)"/>
<path d="M0 0 C1.39120471 0.00015906 2.78241534 0.00585033 4.17358398 0.01586914 C4.90463852 0.01728409 5.63569305 0.01869904 6.38890076 0.02015686 C8.73253406 0.02577131 11.07607313 0.03832617 13.41967773 0.05102539 C15.00496282 0.05603853 16.59024939 0.06060176 18.17553711 0.06469727 C22.06945383 0.07574542 25.96329979 0.09301967 29.85717773 0.11352539 C30.57274769 7.14238963 31.28442627 14.17164008 31.9934082 21.20117188 C32.23502579 23.59221305 32.47753219 25.98316458 32.72094727 28.37402344 C33.07078331 31.81169799 33.41741586 35.24968283 33.76342773 38.68774414 C33.87279663 39.75562668 33.98216553 40.82350922 34.09484863 41.92375183 C34.19495239 42.92441177 34.29505615 43.92507172 34.39819336 44.95605469 C34.48701782 45.83319626 34.57584229 46.71033783 34.6673584 47.61405945 C34.85799902 50.12433971 34.89032731 52.59706715 34.85717773 55.11352539 C37.16717773 55.11352539 39.47717773 55.11352539 41.85717773 55.11352539 C43.12969224 57.6585544 43.15175572 59.72467346 43.35717773 62.56665039 C43.43967773 63.66106445 43.52217773 64.75547852 43.60717773 65.88305664 C43.68967773 67.03161133 43.77217773 68.18016602 43.85717773 69.36352539 C44.02139257 71.61891358 44.18798513 73.87413015 44.35717773 76.12915039 C44.46545898 77.63396973 44.46545898 77.63396973 44.57592773 79.16918945 C44.81099722 82.10385855 44.81099722 82.10385855 45.38842773 84.92504883 C45.97980407 88.94763995 45.85717773 93.04769641 45.85717773 97.11352539 C34.96717773 97.11352539 24.07717773 97.11352539 12.85717773 97.11352539 C11.62754141 90.96534375 11.79384974 85.3829973 11.85717773 79.11352539 C5.25717773 79.11352539 -1.34282227 79.11352539 -8.14282227 79.11352539 C-8.80282227 81.09352539 -9.46282227 83.07352539 -10.14282227 85.11352539 C-11.11910178 87.07385323 -12.13999709 89.01262809 -13.20532227 90.92602539 C-13.99616211 92.35881836 -13.99616211 92.35881836 -14.80297852 93.82055664 C-16.14282227 96.11352539 -16.14282227 96.11352539 -17.14282227 97.11352539 C-19.51850746 97.2019221 -21.86490901 97.22882844 -24.24047852 97.21118164 C-25.30376625 97.20905922 -25.30376625 97.20905922 -26.38853455 97.20689392 C-28.66083939 97.20127982 -30.93304702 97.18872502 -33.20532227 97.17602539 C-34.74243022 97.1710122 -36.27953972 97.16644898 -37.81665039 97.16235352 C-41.59207868 97.15130581 -45.36743397 97.1340318 -49.14282227 97.11352539 C-47.8546486 92.90714888 -46.25785356 89.23810148 -44.09594727 85.41040039 C-43.49782227 84.34692383 -42.89969727 83.28344727 -42.28344727 82.18774414 C-41.65954102 81.09075195 -41.03563477 79.99375977 -40.39282227 78.86352539 C-39.78438477 77.78200195 -39.17594727 76.70047852 -38.54907227 75.58618164 C-34.84913223 69.03222802 -31.05316195 62.54410246 -27.14282227 56.11352539 C-29.12282227 55.78352539 -31.10282227 55.45352539 -33.14282227 55.11352539 C-31.51790023 49.13896449 -28.46727326 44.1194099 -25.39282227 38.80102539 C-24.22550033 36.76103563 -23.05885935 34.72065609 -21.89282227 32.67993164 C-21.2830957 31.61532715 -20.67336914 30.55072266 -20.04516602 29.45385742 C-18.08098033 26.00493691 -16.13836005 22.54480039 -14.20532227 19.07836914 C-13.56820313 17.93601807 -12.93108398 16.79366699 -12.2746582 15.61669922 C-11.03231819 13.38651515 -9.7907656 11.15589223 -8.55004883 8.92480469 C-7.98769531 7.91716064 -7.4253418 6.9095166 -6.84594727 5.87133789 C-6.34740234 4.97560059 -5.84885742 4.07986328 -5.33520508 3.15698242 C-3.56827734 0.12889373 -3.56827734 0.12889373 0 0 Z " fill="#A54BE0" transform="translate(1085.142822265625,186.886474609375)"/>
<path d="M0 0 C10.89 0 21.78 0 33 0 C33.55599805 4.9393315 34.10874087 9.87883884 34.65405273 14.81933594 C34.83946513 16.49108179 35.02657099 18.16264091 35.21557617 19.83398438 C36.5386551 31.54764317 37.46968967 43.2233924 38 55 C40.64 55 43.28 55 46 55 C46.43433005 59.21277048 46.86122745 63.4262139 47.28173828 67.64038086 C47.42528709 69.06896448 47.57074098 70.49735818 47.71826172 71.92553711 C47.93198214 73.99804368 48.13845887 76.07117464 48.34375 78.14453125 C48.46943359 79.38565674 48.59511719 80.62678223 48.72460938 81.90551758 C49.06231576 86.92650497 49 91.96766854 49 97 C38.11 97 27.22 97 16 97 C15.298077 90.68269299 14.90103647 85.23470254 15 79 C5.35487916 78.00136372 5.35487916 78.00136372 -4 80 C-8.83379077 84.65113384 -10.58315365 90.84388193 -13 97 C-23.89 97 -34.78 97 -46 97 C-41.57958831 88.15917662 -37.14898959 79.49632299 -32.25 70.9375 C-31.68667969 69.94556641 -31.12335937 68.95363281 -30.54296875 67.93164062 C-28.07410649 63.59216287 -25.58008123 59.27451281 -23 55 C-25.31 55 -27.62 55 -30 55 C-24.43027325 43.3137006 -18.04455534 32.12599766 -11.63671875 20.88427734 C-7.70357971 13.95317582 -3.86039943 6.97176613 0 0 Z " fill="#469EF1" transform="translate(714,187)"/>
<path d="M0 0 C1.34888732 0.00015905 2.69778075 0.00584927 4.04663086 0.01586914 C5.10991859 0.01799156 5.10991859 0.01799156 6.19468689 0.02015686 C8.46699173 0.02577096 10.73919936 0.03832576 13.01147461 0.05102539 C14.54858257 0.05603858 16.08569206 0.0606018 17.62280273 0.06469727 C21.39823103 0.07574497 25.17358632 0.09301898 28.94897461 0.11352539 C30.29166377 10.06527328 31.38518065 20.03497599 32.36849976 30.02804565 C32.50457375 31.40913706 32.64194631 32.7901012 32.78067017 34.17092896 C33.48154282 41.17132059 34.14648461 48.07498728 33.94897461 55.11352539 C36.58897461 55.11352539 39.22897461 55.11352539 41.94897461 55.11352539 C42.38531065 59.00457521 42.81203017 62.89656099 43.23071289 66.78955078 C43.44318617 68.7476798 43.66277811 70.70503228 43.88256836 72.66235352 C44.01791992 73.92885742 44.15327148 75.19536133 44.29272461 76.50024414 C44.48125 78.22053833 44.48125 78.22053833 44.67358398 79.97558594 C45.05298523 85.6763588 44.94897461 91.40014141 44.94897461 97.11352539 C34.05897461 97.11352539 23.16897461 97.11352539 11.94897461 97.11352539 C11.45397461 88.20352539 11.45397461 88.20352539 10.94897461 79.11352539 C4.67897461 79.11352539 -1.59102539 79.11352539 -8.05102539 79.11352539 C-8.71102539 80.76352539 -9.37102539 82.41352539 -10.05102539 84.11352539 C-12.36102539 88.40352539 -14.67102539 92.69352539 -17.05102539 97.11352539 C-27.94102539 97.11352539 -38.83102539 97.11352539 -50.05102539 97.11352539 C-46.19098194 89.39343848 -42.31007539 81.87024378 -37.98852539 74.42602539 C-36.97628253 72.67242157 -35.96455882 70.91851797 -34.95336914 69.16430664 C-34.47109863 68.32851074 -33.98882813 67.49271484 -33.49194336 66.6315918 C-31.30696972 62.81325596 -29.17404048 58.96657815 -27.05102539 55.11352539 C-29.36102539 55.11352539 -31.67102539 55.11352539 -34.05102539 55.11352539 C-33.51880371 54.14213623 -33.51880371 54.14213623 -32.97583008 53.15112305 C-30.21176597 48.09624427 -27.46649504 43.03230047 -24.75415039 37.94946289 C-4.57848361 0.17036048 -4.57848361 0.17036048 0 0 Z " fill="#2CB5F5" transform="translate(618.051025390625,186.886474609375)"/>
<path d="M0 0 C1.43886244 0.12888365 2.8811113 0.22290374 4.32421875 0.2890625 C31.18342584 1.87664848 59.25794465 10.45693102 82 25 C80.82657583 28.5202725 79.96889897 28.9382646 77 31 C71.78930388 35.11370746 66.61163149 39.21099807 62 44 C61.04867187 43.14535156 61.04867187 43.14535156 60.078125 42.2734375 C56.19547988 39.40579859 52.15403716 37.56244064 47.75 35.625 C46.86900635 35.2343335 45.9880127 34.84366699 45.08032227 34.44116211 C30.21777647 27.94672773 15.76307506 21.91386764 -0.71875 23.66015625 C-2.89997144 23.88606847 -5.08985253 24.04022075 -7.28125 24.12109375 C-13.92534472 24.31297102 -13.92534472 24.31297102 -19.625 27.375 C-25.02805456 33.34679714 -24.78290938 38.99318305 -24.56640625 46.66796875 C-23.54423513 60.71449571 -15.05952852 73.82436248 -7 85 C-6.50886719 85.68288086 -6.01773438 86.36576172 -5.51171875 87.06933594 C-2.97373858 90.57244132 -0.40706133 94.05422993 2.203125 97.50390625 C2.62239258 98.05892822 3.04166016 98.6139502 3.47363281 99.18579102 C5.51008974 101.60628229 7.74501016 103.78249212 10 106 C16.66666667 112.66666667 23.33333333 119.33333333 30 126 C26.81698177 134.56647847 19.20238744 138.71195823 11.1875 142.5 C2.4579431 145.96907473 -5.56966504 146.56383967 -14.4375 143.25 C-27.3501395 137.22963753 -36.6398272 126.15359777 -41.59375 112.859375 C-44.822926 103.73737007 -47.33463946 94.53997923 -49 85 C-49.20496094 83.91589844 -49.40992187 82.83179688 -49.62109375 81.71484375 C-52.69447397 62.91423511 -51.76646584 43.6081348 -48 25 C-47.34 25 -46.68 25 -46 25 C-45.96559814 25.63574951 -45.93119629 26.27149902 -45.89575195 26.92651367 C-44.05711403 58.93591719 -41.66881659 98.98747607 -16.82421875 122.58203125 C-11.54544042 126.68523582 -6.50210208 126.72045452 0 126 C5.9713971 124.23069715 9.39873714 120.95173643 13 116 C12.32453125 115.79503906 11.6490625 115.59007812 10.953125 115.37890625 C6.95711534 113.51304459 4.02624796 110.85527914 0.75 107.9375 C0.08323242 107.3489624 -0.58353516 106.7604248 -1.27050781 106.15405273 C-17.54889006 91.688113 -32.02460667 75.02977495 -39 54 C-39.35835937 52.9275 -39.71671875 51.855 -40.0859375 50.75 C-41.11550353 46.52613935 -41.29610194 42.75955647 -41.25 38.4375 C-41.25773437 37.70853516 -41.26546875 36.97957031 -41.2734375 36.22851562 C-41.25739185 31.77183661 -40.67116317 28.19780272 -39 24 C-39.99 23.67 -40.98 23.34 -42 23 C-40.9790625 22.7525 -40.9790625 22.7525 -39.9375 22.5 C-35.59123977 20.28063307 -33.07786439 16.71415366 -30 13 C-26.98858137 9.71481603 -23.81373267 7.3214025 -20 5 C-19.34 5 -18.68 5 -18 5 C-17.67 4.01 -17.34 3.02 -17 2 C-14.19921875 1.015625 -14.19921875 1.015625 -10.6875 0.25 C-8.96080078 -0.14445312 -8.96080078 -0.14445312 -7.19921875 -0.546875 C-4.11134541 -0.98422947 -2.89473426 -0.76396407 0 0 Z M56 48 C56.99 48.495 56.99 48.495 58 49 C57.01 49.495 57.01 49.495 56 50 C56 49.34 56 48.68 56 48 Z " fill="#3FA3F0" transform="translate(116,279)"/>
<path d="M0 0 C25.08 0 50.16 0 76 0 C75.67 2.64 75.34 5.28 75 8 C74.87044922 9.53333984 74.87044922 9.53333984 74.73828125 11.09765625 C73.12707273 22.31698899 65.80817769 28.49672568 58 36 C56.33093007 37.66425993 54.66382496 39.33049646 53 41 C52.31035156 41.67933594 51.62070312 42.35867187 50.91015625 43.05859375 C48.10635388 45.9082661 45.55214808 48.92433437 43 52 C44.32 52.66 45.64 53.32 47 54 C46.27554688 54.71285156 45.55109375 55.42570312 44.8046875 56.16015625 C43.82798728 57.12746513 42.85143264 58.09492102 41.875 59.0625 C41.400625 59.52849609 40.92625 59.99449219 40.4375 60.47460938 C36.71195107 64.17498567 33.44598114 67.97968867 30 72 C48.315 72.495 48.315 72.495 67 73 C66 83 66 83 62 98 C35.6 98 9.2 98 -18 98 C-17.01 92.555 -17.01 92.555 -16 87 C-15.86980469 85.93007813 -15.73960937 84.86015625 -15.60546875 83.7578125 C-14.1112169 74.34542232 -8.2868684 69.58446731 -1.55908203 63.46142578 C1.55280361 60.54445938 4.27774904 57.27660025 7 54 C5.68 53.34 4.36 52.68 3 52 C3.71285156 51.29875 4.42570313 50.5975 5.16015625 49.875 C10.08124561 45.00901031 14.87626117 40.1235195 19.3671875 34.8515625 C21.6589002 32.25282609 24.12380084 29.84925031 26.6171875 27.4453125 C28.10854485 26.02890223 28.10854485 26.02890223 29 24 C17.78 24 6.56 24 -5 24 C-3.53818986 15.96004422 -1.83749952 7.96249793 0 0 Z " fill="#6087EB" transform="translate(796,187)"/>
<path d="M0 0 C2.64 0.33 5.28 0.66 8 1 C7.01 1.33 6.02 1.66 5 2 C4.97421875 2.72960937 4.9484375 3.45921875 4.921875 4.2109375 C3.93613982 22.35742595 -1.14622632 39.66607805 -9 56 C-9.37898437 56.83273437 -9.75796875 57.66546875 -10.1484375 58.5234375 C-16.89837962 72.88405261 -27.27454764 85.87429578 -42.3125 91.8125 C-46 93 -46 93 -49 93 C-48.65066406 93.95261719 -48.30132812 94.90523438 -47.94140625 95.88671875 C-47.48158334 97.15357779 -47.02195838 98.4205087 -46.5625 99.6875 C-46.33240234 100.31333984 -46.10230469 100.93917969 -45.86523438 101.58398438 C-41.75904338 112.95039712 -41.64589187 124.645537 -46 136 C-50.77673533 144.8710799 -57.81829398 150.21094976 -67 154 C-67.85851562 154.36738281 -68.71703125 154.73476563 -69.6015625 155.11328125 C-83.75388616 158.80589903 -100.26034224 156.4229931 -114 152 C-115.25039062 151.61070312 -116.50078125 151.22140625 -117.7890625 150.8203125 C-134.2446219 145.32460592 -150.42053303 136.76992208 -164 126 C-165.22019537 125.1945746 -166.44800314 124.40039302 -167.6875 123.625 C-168.450625 123.08875 -169.21375 122.5525 -170 122 C-170 121.34 -170 120.68 -170 120 C-171.32 119.34 -172.64 118.68 -174 118 C-171 117 -171 117 -167.62109375 118.625 C-166.22311309 119.41055942 -164.82881877 120.20270105 -163.4375 121 C-142.01066326 132.80507 -117.24358644 141.12251869 -92.6875 141.25 C-91.21506836 141.2809375 -91.21506836 141.2809375 -89.71289062 141.3125 C-81.88268465 141.35395708 -74.31691243 140.68175898 -68.0625 135.625 C-67.381875 134.75875 -66.70125 133.8925 -66 133 C-65.401875 132.278125 -64.80375 131.55625 -64.1875 130.8125 C-61.43387171 124.2907488 -63.15146312 116.78829505 -64 110 C-57.07 106.04 -57.07 106.04 -50 102 C-55.61 103.32 -61.22 104.64 -67 106 C-68.32 103.56625 -69.64 101.1325 -71 98.625 C-83.06954559 77.05090372 -102.08807661 61.14398589 -122 47 C-120.87423295 41.17537915 -116.51272297 39.02474782 -111.8515625 35.8671875 C-110.694915 35.11638123 -109.53602717 34.36901574 -108.375 33.625 C-107.26898438 32.91601562 -106.16296875 32.20703125 -105.0234375 31.4765625 C-102 30 -102 30 -99.9934082 30.25732422 C-96.65701281 31.50035114 -94.34101279 34.07465408 -91.8125 36.5 C-91.24096191 37.03810303 -90.66942383 37.57620605 -90.08056641 38.13061523 C-85.29305486 42.65961459 -80.61475431 47.29534787 -76 52 C-75.29435913 52.67071533 -75.29435913 52.67071533 -74.57446289 53.35498047 C-72.82979572 55.17783167 -71.44210616 57.08720593 -70.00390625 59.16015625 C-69.44509766 59.95357422 -68.88628906 60.74699219 -68.31054688 61.56445312 C-67.14462721 63.23061095 -65.98316485 64.8998967 -64.82617188 66.57226562 C-64.26607422 67.36439453 -63.70597656 68.15652344 -63.12890625 68.97265625 C-62.62431885 69.69718994 -62.11973145 70.42172363 -61.59985352 71.16821289 C-59.32325223 73.77485709 -57.14600552 74.79090426 -53.7734375 75.40625 C-45.27081571 75.73860004 -40.09717622 72.38432293 -33.6875 67.08984375 C-15.55430067 50.24737562 -6.24668467 23.27675239 0 0 Z " fill="#C92BD9" transform="translate(323,291)"/>
<path d="M0 0 C28.05 0 56.1 0 85 0 C81 20 81 20 79 25 C70.42 25 61.84 25 53 25 C52.731875 26.85625 52.46375 28.7125 52.1875 30.625 C51.08666226 37.82400365 49.5976577 44.89574875 48 52 C49.65 52.33 51.3 52.66 53 53 C48.27638437 76.99713374 48.27638437 76.99713374 45.75 88.4375 C45.58725586 89.18112793 45.42451172 89.92475586 45.25683594 90.69091797 C44.12424395 95.7515121 44.12424395 95.7515121 43 98 C32.11 98 21.22 98 10 98 C12.91107575 82.88479898 16.31726877 67.94495137 20 53 C18.02 53 16.04 53 14 53 C15.98 43.76 17.96 34.52 20 25 C11.75 25 3.5 25 -5 25 C-3.60287726 16.61726356 -1.91093835 8.28073287 0 0 Z " fill="#8E5FE3" transform="translate(967,187)"/>
<path d="M0 0 C10.89 0 21.78 0 33 0 C32.26734453 5.12858831 31.39064643 10.09685586 30.2578125 15.13671875 C30.00425491 16.2777581 30.00425491 16.2777581 29.74557495 17.44184875 C29.38877825 19.04476679 29.03069435 20.6473988 28.67138672 22.24975586 C28.13059258 24.6625483 27.59425741 27.07629835 27.05859375 29.49023438 C25.15789482 38.02491979 23.18494516 46.53255493 21 55 C22.65 55 24.3 55 26 55 C25.91080333 56.50096457 25.80264916 58.00080309 25.6875 59.5 C25.60048828 60.75296875 25.60048828 60.75296875 25.51171875 62.03125 C25 65 25 65 22 73 C33.88 73 45.76 73 58 73 C57 82 57 82 53 97 C30.56 97 8.12 97 -15 97 C-14.39962001 91.59658006 -13.87299167 86.86343902 -12.66015625 81.6796875 C-12.40169922 80.56722656 -12.14324219 79.45476562 -11.87695312 78.30859375 C-11.60818359 77.17550781 -11.33941406 76.04242188 -11.0625 74.875 C-10.66514648 73.16376953 -10.66514648 73.16376953 -10.25976562 71.41796875 C-8.96891078 65.90220687 -7.62789074 60.42630247 -6 55 C-7.98 55 -9.96 55 -12 55 C-10.4521211 47.12918182 -8.80456896 39.28118312 -7.125 31.4375 C-6.86251465 30.2112793 -6.6000293 28.98505859 -6.32958984 27.72167969 C-4.33464615 18.4509872 -2.21947319 9.21935016 0 0 Z " fill="#BB38DD" transform="translate(1161,187)"/>
<path d="M0 0 C20.34483236 16.4490134 33.83304094 38.49912283 42 63 C42.65075931 70.8370014 43.22984593 77.99363301 38.38671875 84.58203125 C32.1640486 90.94493059 19.15818539 90.24971853 10.625 90.4375 C-1.56479146 90.47946623 -13.15490296 86.32395673 -24 81 C-23.56125077 56.46992946 -18.18883826 18.18883826 0 0 Z " fill="#181819" transform="translate(265,182)"/>
<path d="M0 0 C3.50688978 3.11723536 5.32417128 5.5260774 5.89453125 10.25 C5.46517745 14.45261603 4.0247409 17.70055469 2.25 21.5 C1.94126953 22.18578125 1.63253906 22.8715625 1.31445312 23.578125 C0.41560316 25.56127187 -0.50727185 27.5314133 -1.4375 29.5 C-1.92734375 30.55832031 -2.4171875 31.61664063 -2.921875 32.70703125 C-6.91102014 40.05816212 -13.62269134 45.82980322 -19.6875 51.5 C-20.18241943 51.96881592 -20.67733887 52.43763184 -21.18725586 52.9206543 C-26.55282319 57.82835027 -26.55282319 57.82835027 -30.4375 58.5 C-33.3046875 56.90234375 -33.3046875 56.90234375 -36.3125 54.4375 C-37.36660309 53.59041808 -38.42128827 52.74406 -39.4765625 51.8984375 C-40.45367187 51.10695312 -41.43078125 50.31546875 -42.4375 49.5 C-43.84455054 48.50706467 -45.25910658 47.52447924 -46.6875 46.5625 C-47.595 45.881875 -48.5025 45.20125 -49.4375 44.5 C-49.4375 43.84 -49.4375 43.18 -49.4375 42.5 C-49.99824219 42.25636719 -50.55898437 42.01273438 -51.13671875 41.76171875 C-53.88479774 40.25470769 -55.93787007 38.42800785 -58.25 36.3125 C-59.06082031 35.57644531 -59.87164062 34.84039062 -60.70703125 34.08203125 C-61.60808594 33.22996094 -62.50914062 32.37789062 -63.4375 31.5 C-64.26362793 30.72414551 -64.26362793 30.72414551 -65.10644531 29.93261719 C-69.51012481 25.68421895 -73.09147094 21.1538925 -76.5625 16.125 C-77.06136719 15.42117187 -77.56023437 14.71734375 -78.07421875 13.9921875 C-87.4375 0.59511668 -87.4375 0.59511668 -87.4375 -3.5 C-20.73077368 -17.35599657 -20.73077368 -17.35599657 0 0 Z " fill="#171617" transform="translate(228.4375,179.5)"/>
<path d="M0 0 C0.87720703 0.01353516 1.75441406 0.02707031 2.65820312 0.04101562 C4.75159027 0.07533345 6.84464722 0.12906461 8.9375 0.1875 C4.76799923 22.43455657 -4.74547451 46.22187099 -20.0625 63.1875 C-20.71089844 63.91710937 -21.35929687 64.64671875 -22.02734375 65.3984375 C-27.75572598 71.50114966 -33.66016641 76.37940504 -42.3125 76.6875 C-46.41128553 76.6339211 -48.79861613 75.68542009 -52.0625 73.1875 C-54.44296226 70.48799124 -56.54137517 67.61980987 -58.625 64.6875 C-59.20564209 63.87087891 -59.78628418 63.05425781 -60.38452148 62.21289062 C-64.41375559 56.40701808 -67.44149101 51.11527587 -69.0625 44.1875 C-69.23571777 43.49060059 -69.40893555 42.79370117 -69.58740234 42.07568359 C-70.55409191 38.17071304 -71.47809608 34.25630191 -72.328125 30.32421875 C-72.54130371 29.34521606 -72.54130371 29.34521606 -72.75878906 28.34643555 C-73.1433131 25.61303836 -73.10864772 22.94384442 -73.0625 20.1875 C-64.60645169 15.61153371 -56.10177526 12.19941458 -46.99194336 9.19995117 C-44.88949289 8.50479196 -42.79549797 7.78757083 -40.70117188 7.06835938 C-27.45385591 2.60421445 -14.06443687 -0.43567358 0 0 Z " fill="#181718" transform="translate(314.0625,290.8125)"/>
<path d="M0 0 C0.845625 -0.01417969 1.69125 -0.02835938 2.5625 -0.04296875 C5.3495269 0.22054822 6.70356731 0.57588819 9 2.1875 C10.59048981 4.2474546 12.0282747 6.26159773 13.4375 8.4375 C14.18318802 9.56969646 14.93188799 10.69991496 15.68359375 11.828125 C16.0587915 12.39257324 16.43398926 12.95702148 16.82055664 13.53857422 C18.15168952 15.46192646 18.15168952 15.46192646 20.5859375 18.0859375 C23.45208539 21.76833463 24.79106633 25.15587006 26.1875 29.5625 C26.44160645 30.33964355 26.69571289 31.11678711 26.95751953 31.91748047 C29.33638755 39.56860189 30.37063276 47.22274912 31 55.1875 C17.44962615 62.5755179 2.75762316 67.67171762 -12.11132812 71.66748047 C-13.78767424 72.12903905 -15.44994305 72.64106259 -17.109375 73.16015625 C-28.11764366 76.29081467 -39.66362346 75.45777674 -51 75.1875 C-49.28165349 53.42177757 -36.84429123 28.09644326 -22 12.1875 C-21.3090625 11.44113281 -20.618125 10.69476563 -19.90625 9.92578125 C-13.84483535 3.6268858 -8.90505904 0.06787393 0 0 Z " fill="#141415" transform="translate(126,206.8125)"/>
<path d="M0 0 C22.29457272 9.70619231 47.66076061 36.90278849 57.0546875 58.89453125 C56.7246875 59.88453125 56.3946875 60.87453125 56.0546875 61.89453125 C55.0646875 62.08789062 54.0746875 62.28125 53.0546875 62.48046875 C44.76703259 64.08015951 44.76703259 64.08015951 36.5546875 66.01953125 C17.92950721 70.67582632 -10.21734469 71.1234292 -27.2578125 61.14453125 C-31.14585206 58.16068694 -33.69252875 54.66036594 -34.9453125 49.89453125 C-36.12824407 40.45924374 -29.74059416 28.52004561 -24.58447266 20.87744141 C-21.69702626 17.19942146 -18.41499734 14.02972848 -14.9453125 10.89453125 C-14.10097656 10.105625 -13.25664062 9.31671875 -12.38671875 8.50390625 C-10.27753028 6.57827605 -8.15155568 4.70758258 -5.9453125 2.89453125 C-5.28402344 2.30800781 -4.62273437 1.72148437 -3.94140625 1.1171875 C-1.9453125 -0.10546875 -1.9453125 -0.10546875 0 0 Z " fill="#151516" transform="translate(198.9453125,336.10546875)"/>
<path d="M0 0 C0.495 0.495 0.495 0.495 1 1 C0.8443857 30.17768125 -7.55789496 56.89443381 -22 82 C-23.1055189 81.06409496 -24.20935453 80.12620142 -25.3125 79.1875 C-25.92738281 78.66542969 -26.54226562 78.14335937 -27.17578125 77.60546875 C-30.51952278 74.6626898 -30.51952278 74.6626898 -32 73 C-32 72.34 -32 71.68 -32 71 C-33.485 70.505 -33.485 70.505 -35 70 C-36.29931641 68.63989258 -36.29931641 68.63989258 -37.6015625 66.89453125 C-38.08737793 66.24790527 -38.57319336 65.6012793 -39.07373047 64.93505859 C-39.58564941 64.23461426 -40.09756836 63.53416992 -40.625 62.8125 C-41.15625488 62.09143066 -41.68750977 61.37036133 -42.23486328 60.62744141 C-50.30233392 49.57740724 -57.01796899 38.78993535 -62 26 C-62.556875 24.85144531 -62.556875 24.85144531 -63.125 23.6796875 C-65.48012774 16.46710879 -65.92572518 5.84642235 -62.50390625 -0.98828125 C-48.46143633 -16.95757656 -16.18651671 -7.51139011 0 0 Z " fill="#131414" transform="translate(155,310)"/>
<path d="M0 0 C3.25879488 2.56048169 6.09816937 5.01144944 8.6875 8.25 C12.01415441 12.25062595 15.91633303 15.35053355 19.9765625 18.58203125 C22.10427385 20.28365053 24.19801559 21.99902323 26.2734375 23.76171875 C26.81210449 24.21828857 27.35077148 24.6748584 27.90576172 25.14526367 C29.42815589 26.43894901 30.94850435 27.73504055 32.46875 29.03125 C34.9089945 31.1545649 34.9089945 31.1545649 38 32 C38 32.66 38 33.32 38 34 C39.65 34.33 41.3 34.66 43 35 C43 35.66 43 36.32 43 37 C43.58120605 37.12310547 44.16241211 37.24621094 44.76123047 37.37304688 C47.03787873 38.0106077 48.77462011 38.85695733 50.8203125 40.03125 C51.52027344 40.42957031 52.22023438 40.82789063 52.94140625 41.23828125 C53.66199219 41.65464844 54.38257813 42.07101562 55.125 42.5 C56.5649473 43.32319111 58.00504453 44.14612005 59.4453125 44.96875 C60.07969238 45.33419922 60.71407227 45.69964844 61.36767578 46.07617188 C62.56006665 46.75101589 63.77453342 47.38726671 65 48 C66.32367079 61.38378244 66.32367079 61.38378244 65 67 C61.83037554 70.65686446 58.46908927 72.2848737 54 74 C53.67 74.33 53.34 74.66 53 75 C47.91442612 74.60639907 44.31756078 73.38146514 39.875 70.9375 C16.75533974 58.82312758 -8.02014244 52.30295212 -34 51 C-30.51697842 46.71744576 -26.78120684 45.64893249 -21.6875 44.125 C-11.92638393 41.0454702 -2.09660882 37.74995338 7 33 C6.12845556 23.10081609 4.42923564 14.26524237 1.0234375 4.9140625 C0 2 0 2 0 0 Z " fill="#945AE3" transform="translate(149,229)"/>
<path d="M0 0 C-0.50225098 0.33620361 -1.00450195 0.67240723 -1.52197266 1.01879883 C-44.12961906 29.59302231 -44.12961906 29.59302231 -69 73 C-69.59815275 78.09820887 -69.32674529 83.02470516 -68 88 C-67.34 88 -66.68 88 -66 88 C-64.9790625 89.1446875 -64.9790625 89.1446875 -63.9375 90.3125 C-55.57790406 97.96064097 -42.72398866 97.19277242 -32.0625 97.5625 C-30.32129883 97.62727539 -30.32129883 97.62727539 -28.54492188 97.69335938 C-25.69671768 97.79884842 -22.84843471 97.90096555 -20 98 C-20.495 99.485 -20.495 99.485 -21 101 C-21.845625 101.4125 -22.69125 101.825 -23.5625 102.25 C-29.50478907 105.27516534 -34.01663147 109.5829621 -37.9375 114.9375 C-39.56142238 116.86536507 -40.49042332 117.84608704 -42.9140625 118.578125 C-53.36233033 119.11003682 -64.86453019 114.29755637 -73 108 C-80.40053009 101.2531445 -85.39519261 94.50519577 -86.3359375 84.38671875 C-86.83750904 65.1919617 -77.50187211 51.62420958 -64.953125 37.734375 C-54.29748639 26.61206609 -16.85174199 -5.61724733 0 0 Z " fill="#20BDF5" transform="translate(119,184)"/>
<path d="M0 0 C8.55519481 0.79980288 8.55519481 0.79980288 12.5 3.4375 C13.1703125 3.86933594 13.840625 4.30117188 14.53125 4.74609375 C15.0159375 5.15988281 15.500625 5.57367188 16 6 C16 6.66 16 7.32 16 8 C16.99 8.33 17.98 8.66 19 9 C19 10.32 19 11.64 19 13 C19.66 13 20.32 13 21 13 C21.87952639 28.60344962 14.49824499 41.57943938 4.47290039 53.11303711 C-3.96520792 62.55442667 -12.82614077 71.42807604 -23 79 C-23.55945313 79.41991211 -24.11890625 79.83982422 -24.6953125 80.27246094 C-48.34880678 98 -48.34880678 98 -52 98 C-52.66 95.69 -53.32 93.38 -54 91 C-53.16597656 90.72027344 -52.33195312 90.44054687 -51.47265625 90.15234375 C-34.55786426 84.1265702 -24.36964726 72.67961816 -16 57 C-14.12911338 52.72991941 -12.53189532 48.4012531 -11 44 C-10.4827079 42.66528879 -9.96238072 41.33174523 -9.4375 40 C-8.95111834 38.66928164 -8.47258684 37.33567966 -8 36 C-7.69320312 35.15308594 -7.38640625 34.30617188 -7.0703125 33.43359375 C-3.41444487 22.56518106 -1.80069254 11.29485843 0 0 Z " fill="#1B171B" transform="translate(328,293)"/>
<path d="M0 0 C14.06399612 5.9607171 20.67462316 24.47207717 26.04248047 37.60742188 C27.81746994 42.22839829 28.88072736 46.81448994 29.60302734 51.70361328 C30.01937499 54.48432928 30.4914478 57.2544515 30.95703125 60.02734375 C33.28504925 74.34110534 34.64435145 88.44130425 34.9375 102.9375 C32.2975 102.9375 29.6575 102.9375 26.9375 102.9375 C27.2675 101.90625 27.5975 100.875 27.9375 99.8125 C32.12578613 82.60410697 25.60405122 66.57602756 16.9375 51.9375 C14.49358355 48.3752628 11.82310881 45.14801515 8.9375 41.9375 C8.26203125 41.15503906 7.5865625 40.37257812 6.890625 39.56640625 C-2.4896161 28.86813857 -12.16635803 18.82852804 -24.0625 10.9375 C-23.70404938 8.0887609 -23.18895301 7.05702408 -21.06640625 5.05078125 C-20.26074219 4.45652344 -19.45507812 3.86226562 -18.625 3.25 C-17.82191406 2.64800781 -17.01882813 2.04601562 -16.19140625 1.42578125 C-11.15448013 -2.095446 -5.71000731 -1.81429082 0 0 Z " fill="#1D181D" transform="translate(293.0625,168.0625)"/>
<path d="M0 0 C2.97 0.33 5.94 0.66 9 1 C8.76023437 2.23169922 8.76023437 2.23169922 8.515625 3.48828125 C5.52901028 23.82893756 11.60415779 40.87102066 23.64428711 57.21240234 C34.28103845 71.04165612 46.41117159 83.3465412 61 93 C58.83235128 97.82841183 55.43777804 100.83761577 50.640625 103.125 C45.00874589 104.99118479 39.10248596 105.01081056 33.75 102.4375 C32.8425 101.633125 31.935 100.82875 31 100 C30.47277344 99.57203125 29.94554688 99.1440625 29.40234375 98.703125 C8.1230518 79.8959148 3.94980236 44.32523121 2.15234375 17.89697266 C1.96402691 14.31593487 1.90127784 10.77349404 1.9375 7.1875 C1.94652344 6.00542969 1.95554687 4.82335937 1.96484375 3.60546875 C1.98224609 2.31576172 1.98224609 2.31576172 2 1 C1.34 0.67 0.68 0.34 0 0 Z " fill="#131516" transform="translate(68,302)"/>
<path d="M0 0 C2.50037734 2.17424117 3.43628586 3.73045798 4 7 C3.40574219 7.13535156 2.81148438 7.27070313 2.19921875 7.41015625 C-13.03230254 11.36608791 -23.238564 21.58237921 -31.24609375 34.7734375 C-41.93978734 54.44602303 -48.01021141 75.71436779 -50 98 C-56.95904593 97.061859 -61.65286299 95.64968435 -67 91 C-67 90.34 -67 89.68 -67 89 C-67.66 89 -68.32 89 -69 89 C-71.60403907 84.11742675 -71.78994798 79.37584067 -71 74 C-60.71287351 40.28311923 -28.93761443 17.39335335 0 0 Z " fill="#131617" transform="translate(120,183)"/>
<path d="M0 0 C2.64 0.33 5.28 0.66 8 1 C7.01 1.33 6.02 1.66 5 2 C4.96132813 3.09441406 4.96132813 3.09441406 4.921875 4.2109375 C3.93613982 22.35742595 -1.14622632 39.66607805 -9 56 C-9.56847656 57.24910156 -9.56847656 57.24910156 -10.1484375 58.5234375 C-16.89513824 72.87715652 -27.2549545 85.8144818 -42.25 91.8125 C-46 93 -46 93 -50 93 C-51.12752649 90.77208002 -52.25208139 88.54274113 -53.375 86.3125 C-53.69210937 85.68666016 -54.00921875 85.06082031 -54.3359375 84.41601562 C-56.05472081 80.99635299 -57.64469217 77.57992926 -59 74 C-58.01 74.33 -57.02 74.66 -56 75 C-49.03395832 76.0097565 -44.25417286 74.79607188 -38.4375 70.87890625 C-17.06050796 54.40080822 -6.76295306 25.20050107 0 0 Z " fill="#B639D9" transform="translate(323,291)"/>
<path d="M0 0 C1.50519387 2.62214328 3.00431319 5.24744208 4.5 7.875 C4.92925781 8.62136719 5.35851562 9.36773437 5.80078125 10.13671875 C6.20683594 10.85214844 6.61289063 11.56757813 7.03125 12.3046875 C7.59682617 13.2944458 7.59682617 13.2944458 8.17382812 14.30419922 C9 16 9 16 9 18 C7.82244141 17.94779297 7.82244141 17.94779297 6.62109375 17.89453125 C-3.08691437 17.64438626 -8.88603328 19.44652893 -16.03515625 26.07421875 C-16.68355469 26.70972656 -17.33195312 27.34523437 -18 28 C-18.86431641 28.84498047 -18.86431641 28.84498047 -19.74609375 29.70703125 C-31.15793955 41.80411491 -37.54251678 57.84016243 -43.1875 73.1875 C-43.53304932 74.1266626 -43.87859863 75.0658252 -44.23461914 76.03344727 C-46.13931416 81.31139966 -47.74659813 86.53002567 -49 92 C-50.65 91.67 -52.3 91.34 -54 91 C-54.16604675 84.60720022 -53.67370083 78.81670418 -52.375 72.5625 C-52.19678711 71.69850586 -52.01857422 70.83451172 -51.83496094 69.94433594 C-46.72583147 46.26598465 -36.41357625 18.72926481 -15.25 5 C-10.18831019 1.92154538 -6.03393163 -0.34479609 0 0 Z " fill="#429EED" transform="translate(124,190)"/>
<path d="M0 0 C4.96125842 2.64227422 9.05228786 5.54205778 13.125 9.4375 C13.67776611 9.95900635 14.23053223 10.4805127 14.80004883 11.01782227 C16.54179668 12.66995934 18.27138054 14.33414212 20 16 C20.56090332 16.53367188 21.12180664 17.06734375 21.69970703 17.6171875 C38.57844506 33.7155477 54.78798639 53.86480761 55.4375 78.3125 C55.43043825 84.27968067 54.2812216 86.91674239 52 93 C45.07 92.67 38.14 92.34 31 92 C32.98 89.36 34.96 86.72 37 84 C40.32480589 77.35038821 38.43620156 67.40415275 36.25878906 60.57910156 C31.41657779 46.91247437 23.94538122 35.37916962 15 24 C14.35675781 23.15179688 13.71351563 22.30359375 13.05078125 21.4296875 C9.12363098 16.26731642 4.97616216 11.76136193 0.125 7.4375 C-2 5 -2 5 -1.875 2.75 C-1 1 -1 1 0 0 Z " fill="#E115D4" transform="translate(268,178)"/>
<path d="M0 0 C6.68446157 5.63283742 6.68446157 5.63283742 7.53515625 9.2578125 C6.22737958 11.85536891 4.93527236 14.02202691 3.28515625 16.3828125 C2.65287109 17.33220703 2.65287109 17.33220703 2.0078125 18.30078125 C0.32176441 20.80591895 -1.32560287 23.11857162 -3.46484375 25.2578125 C-3.79484375 24.0821875 -4.12484375 22.9065625 -4.46484375 21.6953125 C-6.82417288 15.52391918 -11.17342702 11.85621609 -17.046875 9.00390625 C-19.82707794 7.92603072 -22.59066474 7.05000311 -25.46484375 6.2578125 C-26.27179688 6.03222656 -27.07875 5.80664062 -27.91015625 5.57421875 C-48.3791698 0.92217022 -71.508488 5.10778521 -91.46484375 10.2578125 C-94.46484375 10.3828125 -94.46484375 10.3828125 -96.46484375 10.2578125 C-97.12484375 8.9378125 -97.78484375 7.6178125 -98.46484375 6.2578125 C-92.92267609 3.33889559 -87.51037238 1.09178425 -81.52734375 -0.7421875 C-80.70975586 -0.99637451 -79.89216797 -1.25056152 -79.04980469 -1.51245117 C-54.80052499 -8.90637894 -22.43607949 -15.8581481 0 0 Z " fill="#C032DA" transform="translate(237.46484375,165.7421875)"/>
<path d="M0 0 C5.21728538 1.63270853 10.12993692 3.35135693 14.9375 6 C15.85402344 6.495 16.77054688 6.99 17.71484375 7.5 C20 9 20 9 22 12 C20.71034824 13.37562854 19.37310707 14.70766393 18 16 C17.34 16 16.68 16 16 16 C15.76410156 16.56203125 15.52820313 17.1240625 15.28515625 17.703125 C13.70387866 20.52923814 11.71883754 22.45081162 9.4375 24.75 C-1.7379278 36.86345213 -10.4553602 53.79075541 -10.29296875 70.58203125 C-9.47532174 77.33034454 -7.02316053 83.95367894 -4 90 C-5.98 92.31 -7.96 94.62 -10 97 C-10.66 95.68 -11.32 94.36 -12 93 C-14.36863302 90.61382155 -16.78083476 88.31856369 -19.27539062 86.06640625 C-22.98344931 82.54837948 -22.98344931 82.54837948 -23.05859375 80.05859375 C-21.89842092 77.80246429 -20.69445729 75.57734959 -19.42260742 73.38208008 C-15.52101617 66.6054407 -12.63364147 59.73699975 -10.1875 52.3125 C-9.91019043 51.47082275 -9.63288086 50.62914551 -9.34716797 49.76196289 C-5.6169598 38.05608498 -3.3258774 26.41562043 -1.8125 14.25 C-1.63411658 12.85929108 -1.45508369 11.46866531 -1.27539062 10.078125 C-0.84390151 6.71950703 -0.41890575 3.36020654 0 0 Z " fill="#C82BD8" transform="translate(156,311)"/>
<path d="M0 0 C0.9590625 0.4846875 1.918125 0.969375 2.90625 1.46875 C3.89367187 1.96632813 4.88109375 2.46390625 5.8984375 2.9765625 C6.84976563 3.51023437 7.80109375 4.04390625 8.78125 4.59375 C9.74804688 5.13257813 10.71484375 5.67140625 11.7109375 6.2265625 C12.79761719 6.84144531 12.79761719 6.84144531 13.90625 7.46875 C15.22992079 20.85253244 15.22992079 20.85253244 13.90625 26.46875 C10.73662554 30.12561446 7.37533927 31.7536237 2.90625 33.46875 C2.57625 33.79875 2.24625 34.12875 1.90625 34.46875 C-0.6860851 34.41239489 -2.60417207 34.1127554 -5.09375 33.46875 C-6.0425 33.22511719 -6.99125 32.98148437 -7.96875 32.73046875 C-11.55319104 31.37230164 -13.53376918 30.35919306 -16.09375 27.46875 C-17.77981398 21.32336163 -17.36225273 14.77544197 -17.09375 8.46875 C-14.90057759 6.90048151 -12.69364559 5.36581137 -10.46875 3.84375 C-9.85128906 3.39773438 -9.23382813 2.95171875 -8.59765625 2.4921875 C-3.90337399 -0.67027634 -3.90337399 -0.67027634 0 0 Z " fill="#171618" transform="translate(200.09375,269.53125)"/>
<path d="M0 0 C3.18697468 2.81203648 4.75373278 5.60664784 5.4453125 9.83203125 C5.73853126 14.94381168 4.53329365 17.91401008 1.125 21.875 C-1.8191366 24.26213778 -3.52601478 24.83692889 -7.3125 25.25 C-11.28845159 24.83147878 -13.57223365 24.12688615 -16.875 21.875 C-20.43586329 17.00848684 -20.76047804 11.70358624 -19.875 5.875 C-15.49941275 -1.62600671 -7.82441319 -3.0617269 0 0 Z " fill="#EEEEEE" transform="translate(975.875,364.125)"/>
<path d="M0 0 C13.64705882 0 13.64705882 0 19.375 5.125 C21.65176161 9.15311669 21.78212179 12.47486679 21 17 C19.24679212 20.6412779 17.68363505 22.49977923 14.4375 24.875 C11 26 11 26 0 26 C0 17.42 0 8.84 0 0 Z " fill="#E3E3E3" transform="translate(722,363)"/>
<path d="M0 0 C1.65 0 3.3 0 5 0 C6.87890625 1.9765625 6.87890625 1.9765625 8.5625 4.625 C9.12066406 5.48351562 9.67882812 6.34203125 10.25390625 7.2265625 C10.83011719 8.14179688 11.40632812 9.05703125 12 10 C13.98 12.97 13.98 12.97 16 16 C16.33 10.72 16.66 5.44 17 0 C18.65 0 20.3 0 22 0 C22 8.25 22 16.5 22 25 C16 25 16 25 14.40087891 23.53125 C13.81959229 22.52578125 13.81959229 22.52578125 13.2265625 21.5 C12.79472656 20.778125 12.36289062 20.05625 11.91796875 19.3125 C11.49128906 18.549375 11.06460938 17.78625 10.625 17 C10.17511719 16.236875 9.72523438 15.47375 9.26171875 14.6875 C8.1546716 12.80316443 7.07467588 10.90298337 6 9 C5.67 14.28 5.34 19.56 5 25 C3.35 25.33 1.7 25.66 0 26 C0 17.42 0 8.84 0 0 Z " fill="#DEDEDE" transform="translate(607,363)"/>
<path d="M0 0 C0.66 0.33 1.32 0.66 2 1 C1.73445313 1.60585938 1.46890625 2.21171875 1.1953125 2.8359375 C-4.72259244 16.87476309 -5.19929195 27.65450834 0 42 C0.66 43.32 1.32 44.64 2 46 C0.02 48.31 -1.96 50.62 -4 53 C-4.66 51.68 -5.32 50.36 -6 49 C-8.36863302 46.61382155 -10.78083476 44.31856369 -13.27539062 42.06640625 C-16.98216309 38.54959979 -16.98216309 38.54959979 -17.0625 36.07421875 C-15.54583864 33.11338353 -13.95549478 30.20421626 -12.3125 27.3125 C-8.76004131 20.90701799 -6.15870086 14.42250944 -3.90356445 7.46020508 C-2.1793399 2.1793399 -2.1793399 2.1793399 0 0 Z " fill="#A24CDF" transform="translate(150,355)"/>
<path d="M0 0 C11.8 0 11.8 0 15 2 C16.99442942 4.53836472 17.0112263 5.81663715 16.8125 9.0625 C15.96785467 12.11621772 15.26171226 12.94556056 13 15 C13.3609375 15.55429687 13.721875 16.10859375 14.09375 16.6796875 C14.5578125 17.40414063 15.021875 18.12859375 15.5 18.875 C16.19609375 19.95394531 16.19609375 19.95394531 16.90625 21.0546875 C18 23 18 23 18 25 C16.35 25 14.7 25 13 25 C12.67386719 24.36191406 12.34773438 23.72382813 12.01171875 23.06640625 C11.57472656 22.24011719 11.13773438 21.41382813 10.6875 20.5625 C10.04361328 19.32693359 10.04361328 19.32693359 9.38671875 18.06640625 C8.09979113 15.69352356 8.09979113 15.69352356 5 15 C5 18.63 5 22.26 5 26 C3.35 26 1.7 26 0 26 C0 17.42 0 8.84 0 0 Z " fill="#E5E5E5" transform="translate(1014,363)"/>
<path d="M0 0 C0.14099121 0.6798999 0.28198242 1.3597998 0.42724609 2.06030273 C1.07584578 5.18617076 1.72541664 8.31183624 2.375 11.4375 C2.59671875 12.50677734 2.8184375 13.57605469 3.046875 14.67773438 C4.31917724 20.79601131 5.62807618 26.90327314 7 33 C2.07150769 28.9476841 -2.4495308 24.59224215 -6.92626953 20.05419922 C-10.46440903 16.48656498 -14.12086712 13.18950926 -18 10 C-15.26992997 6.7138046 -11.64211324 5.13517398 -7.875 3.3125 C-7.22917969 2.99216797 -6.58335937 2.67183594 -5.91796875 2.34179688 C-1.15448428 0 -1.15448428 0 0 0 Z " fill="#34ABF0" transform="translate(241,311)"/>
<path d="M0 0 C2.29949654 1.12300994 3.9825011 2.38600088 6 4 C5.67 4.99 5.34 5.98 5 7 C2.83125748 6.49396008 1.00032373 6.00016187 -1 5 C-5.61596747 4.49209271 -5.61596747 4.49209271 -9.6953125 6.23828125 C-11.76277542 9.0299752 -11.47385752 11.46691221 -11.34765625 14.8359375 C-11.11541938 17.19081555 -11.11541938 17.19081555 -9.375 19.5625 C-6.33244416 21.40404695 -4.502304 21.44710264 -1 21 C2.24849977 19.27773504 2.24849977 19.27773504 3 16 C0.69 16 -1.62 16 -4 16 C-4 14.68 -4 13.36 -4 12 C-0.04 12 3.92 12 8 12 C8 16.62 8 21.24 8 26 C6.68 26 5.36 26 4 26 C3.67 25.34 3.34 24.68 3 24 C2.484375 24.33 1.96875 24.66 1.4375 25 C-1.93843074 26.38499723 -4.37415116 26.37508781 -8 26 C-12.86953166 23.56523417 -15.18709505 21.13656401 -17 16 C-17.53544952 11.71640386 -17.31035287 9.59771664 -15.3125 5.75 C-11.00326625 0.62550581 -6.73671523 -1.24753986 0 0 Z " fill="#E9E9E9" transform="translate(660,363)"/>
<path d="M0 0 C2.97 0.99 5.94 1.98 9 3 C18.67419163 6.13121638 27.73678268 8.78247516 38 9 C34.81854368 10.76573904 31.78110007 11.63797311 28.23828125 12.4375 C27.11873047 12.69273437 25.99917969 12.94796875 24.84570312 13.2109375 C23.67974609 13.47132813 22.51378906 13.73171875 21.3125 14 C20.16587891 14.26039063 19.01925781 14.52078125 17.83789062 14.7890625 C11.56272444 16.21148139 5.28116208 17.6041862 -1 19 C-0.67 12.73 -0.34 6.46 0 0 Z " fill="#A24DDF" transform="translate(241,263)"/>
<path d="M0 0 C1.37115147 2.74230295 0.65433504 3.97570159 -0.14453125 6.91015625 C-0.40943359 7.90080078 -0.67433594 8.89144531 -0.94726562 9.91210938 C-1.23279297 10.95173828 -1.51832031 11.99136719 -1.8125 13.0625 C-3.69388753 20.01699366 -5.49673592 26.95299132 -7 34 C-11.21654356 32.51364884 -14.62478605 30.38750841 -18.3125 27.875 C-19.38113281 27.15054688 -20.44976562 26.42609375 -21.55078125 25.6796875 C-22.35902344 25.12539062 -23.16726562 24.57109375 -24 24 C-20.83181419 20.7787161 -17.58759579 17.68232319 -14.2409668 14.64746094 C-9.13320961 10.01444657 -4.30410838 5.41087911 0 0 Z " fill="#CB2AD9" transform="translate(223,215)"/>
<path d="M0 0 C11.55555556 0 11.55555556 0 15 2 C16.54586876 5.09173752 16.29359521 7.59429552 16 11 C14.68 12.32 13.36 13.64 12 15 C13.98 18.3 15.96 21.6 18 25 C16.35 25 14.7 25 13 25 C11.3046875 22.84765625 11.3046875 22.84765625 9.875 20.0625 C7.9447709 15.91453974 7.9447709 15.91453974 4 14 C4 17.63 4 21.26 4 25 C2.68 25 1.36 25 0 25 C0 16.75 0 8.5 0 0 Z " fill="#F5F5F5" transform="translate(517,363)"/>
<path d="M0 0 C3.25879488 2.56048169 6.09816937 5.01144944 8.6875 8.25 C12.11781312 12.41929015 16.26689248 15.58127312 20.51171875 18.88671875 C23 21 23 21 26 25 C20.06 27.64 14.12 30.28 8 33 C7.4225 29.926875 6.845 26.85375 6.25 23.6875 C4.92544039 16.85040237 3.38639255 10.36528029 0.734375 3.8984375 C0 2 0 2 0 0 Z " fill="#C82CD9" transform="translate(149,229)"/>
<path d="M0 0 C1.65 0 3.3 0 5 0 C14 19.45810056 14 19.45810056 14 25 C12.68 25 11.36 25 10 25 C9.78601562 24.35546875 9.57203125 23.7109375 9.3515625 23.046875 C8.1526477 20.72160885 8.1526477 20.72160885 5.3984375 20.390625 C3.90183594 20.32101562 3.90183594 20.32101562 2.375 20.25 C1.37210938 20.19328125 0.36921875 20.1365625 -0.6640625 20.078125 C-1.82035156 20.03945313 -1.82035156 20.03945313 -3 20 C-3.33 21.65 -3.66 23.3 -4 25 C-5.65 25 -7.3 25 -9 25 C-6.5198846 16.40965617 -3.59883451 8.18587357 0 0 Z " fill="#EDEDED" transform="translate(1082,363)"/>
<path d="M0 0 C5 0 5 0 6.46972656 1.34521484 C6.85612305 1.96090332 7.24251953 2.5765918 7.640625 3.2109375 C8.07117188 3.87867188 8.50171875 4.54640625 8.9453125 5.234375 C9.37585938 5.94078125 9.80640625 6.6471875 10.25 7.375 C10.69601562 8.07367188 11.14203125 8.77234375 11.6015625 9.4921875 C13.1650711 11.95589801 14.69459059 14.38918119 16 17 C16.33 11.39 16.66 5.78 17 0 C18.32 0 19.64 0 21 0 C21 8.25 21 16.5 21 25 C16 25 16 25 14.42260742 23.43945312 C13.98795166 22.72724609 13.5532959 22.01503906 13.10546875 21.28125 C12.62529297 20.51425781 12.14511719 19.74726563 11.65039062 18.95703125 C11.16763672 18.14621094 10.68488281 17.33539063 10.1875 16.5 C9.68541016 15.68917969 9.18332031 14.87835938 8.66601562 14.04296875 C7.42794798 12.03847828 6.21184616 10.02045104 5 8 C4.67 13.94 4.34 19.88 4 26 C2.68 26 1.36 26 0 26 C0 17.42 0 8.84 0 0 Z " fill="#EEEEEE" transform="translate(892,363)"/>
<path d="M0 0 C1.65 0 3.3 0 5 0 C14 21.1352459 14 21.1352459 14 25 C12.35 24.67 10.7 24.34 9 24 C8.67 23.01 8.34 22.02 8 21 C4.37 21 0.74 21 -3 21 C-3.66 22.32 -4.32 23.64 -5 25 C-6.32 25 -7.64 25 -9 25 C-6.64374201 16.51363994 -3.94709594 7.89419187 0 0 Z " fill="#EDEDED" transform="translate(793,363)"/>
<path d="M0 0 C5 0 5 0 6.57739258 1.56054688 C7.01204834 2.27275391 7.4467041 2.98496094 7.89453125 3.71875 C8.37470703 4.48574219 8.85488281 5.25273437 9.34960938 6.04296875 C9.83236328 6.85378906 10.31511719 7.66460937 10.8125 8.5 C11.31458984 9.31082031 11.81667969 10.12164062 12.33398438 10.95703125 C13.57205202 12.96152172 14.78815384 14.97954896 16 17 C16.33 11.39 16.66 5.78 17 0 C18.32 0 19.64 0 21 0 C21 8.25 21 16.5 21 25 C16 25 16 25 14.42260742 23.43945312 C13.98795166 22.72724609 13.5532959 22.01503906 13.10546875 21.28125 C12.62529297 20.51425781 12.14511719 19.74726563 11.65039062 18.95703125 C11.16763672 18.14621094 10.68488281 17.33539063 10.1875 16.5 C9.68541016 15.68917969 9.18332031 14.87835938 8.66601562 14.04296875 C7.42794798 12.03847828 6.21184616 10.02045104 5 8 C4.67 13.61 4.34 19.22 4 25 C2.68 25 1.36 25 0 25 C0 16.75 0 8.5 0 0 Z " fill="#F8F8F8" transform="translate(549,363)"/>
<path d="M0 0 C3 2.375 3 2.375 5 5 C5 5.66 5 6.32 5 7 C0.125 6.125 0.125 6.125 -1 5 C-3.33297433 4.95907063 -5.66705225 4.95758277 -8 5 C-7.88072436 6.95285082 -7.88072436 6.95285082 -7 9 C-4.76014735 10.28749501 -4.76014735 10.28749501 -2.0625 11.125 C2.82781457 12.82781457 2.82781457 12.82781457 5 15 C5.56319703 21.19516729 5.56319703 21.19516729 3.81640625 23.69140625 C0.11833933 26.355605 -4.67761864 25.69410504 -9 25 C-12.1875 22.625 -12.1875 22.625 -14 20 C-14 19.34 -14 18.68 -14 18 C-11.6875 17.8125 -11.6875 17.8125 -9 18 C-8 19 -7 20 -6 21 C-3.37429296 21.25069913 -3.37429296 21.25069913 -1 21 C-0.67 19.68 -0.34 18.36 0 17 C-0.68707031 16.74605469 -1.37414062 16.49210937 -2.08203125 16.23046875 C-2.98308594 15.88628906 -3.88414062 15.54210937 -4.8125 15.1875 C-5.70582031 14.85105469 -6.59914063 14.51460938 -7.51953125 14.16796875 C-9.96012588 13.01877537 -11.35067613 12.11369661 -13 10 C-13.5 7.0625 -13.5 7.0625 -13 4 C-9.41676638 -0.25508992 -5.30483099 -1.27273163 0 0 Z " fill="#ECECEC" transform="translate(833,363)"/>
<path d="M0 0 C4.95 0 9.9 0 15 0 C15 1.32 15 2.64 15 4 C11.7 4 8.4 4 5 4 C5 6.31 5 8.62 5 11 C7.64 11 10.28 11 13 11 C13 12.32 13 13.64 13 15 C10.36 15 7.72 15 5 15 C5 17.31 5 19.62 5 22 C7.97 22 10.94 22 14 22 C14 23.32 14 24.64 14 26 C9.38 26 4.76 26 0 26 C0 17.42 0 8.84 0 0 Z " fill="#E2E2E2" transform="translate(757,363)"/>
<path d="M0 0 C2.4375 1.375 2.4375 1.375 4 4 C4.60787497 7.45227106 4.6518429 10.55209412 4 14 C1.9375 16.6875 1.9375 16.6875 -1 18 C-5.24645609 18.07449923 -7.220257 17.67977595 -10.4375 14.875 C-12.43514338 11.19933618 -12.66350721 9.12848931 -12 5 C-8.59008657 0.14345663 -5.84624621 -0.95665847 0 0 Z " fill="#292929" transform="translate(972,367)"/>
<path d="M0 0 C1.32 0 2.64 0 4 0 C4.01981934 0.56509277 4.03963867 1.13018555 4.06005859 1.71240234 C4.15518236 4.26707997 4.26491058 6.82092541 4.375 9.375 C4.4059375 10.26445312 4.436875 11.15390625 4.46875 12.0703125 C4.50742187 12.92109375 4.54609375 13.771875 4.5859375 14.6484375 C4.6173584 15.43395996 4.6487793 16.21948242 4.68115234 17.02880859 C4.8399465 19.23002939 4.8399465 19.23002939 7 21 C9.5 21.33333333 9.5 21.33333333 12 21 C14.3968665 18.6031335 14.28281133 17.92971686 14.4140625 14.6484375 C14.45273437 13.79765625 14.49140625 12.946875 14.53125 12.0703125 C14.5621875 11.18085938 14.593125 10.29140625 14.625 9.375 C14.68300781 8.02921875 14.68300781 8.02921875 14.7421875 6.65625 C14.83659357 4.4377073 14.92216748 2.21917597 15 0 C16.32 0 17.64 0 19 0 C19.14584064 3.22868746 19.23424106 6.45652365 19.3125 9.6875 C19.35439453 10.59951172 19.39628906 11.51152344 19.43945312 12.45117188 C19.5241275 17.10826254 19.55434019 19.26860466 16.6640625 23.08203125 C13.55384931 25.32120233 11.83225268 26 8 26 C4.02527937 24.47126129 2.38146335 23.57219503 0 20 C-0.22705078 17.82348633 -0.22705078 17.82348633 -0.1953125 15.33203125 C-0.18564453 13.99301758 -0.18564453 13.99301758 -0.17578125 12.62695312 C-0.15902344 11.69818359 -0.14226562 10.76941406 -0.125 9.8125 C-0.11597656 8.87212891 -0.10695313 7.93175781 -0.09765625 6.96289062 C-0.07409056 4.64167032 -0.04119116 2.32096356 0 0 Z " fill="#F5F5F5" transform="translate(482,363)"/>
<path d="M0 0 C4.62 0 9.24 0 14 0 C14 1.32 14 2.64 14 4 C10.7 4 7.4 4 4 4 C4 6.31 4 8.62 4 11 C6.97 11 9.94 11 13 11 C13 12.32 13 13.64 13 15 C10.03 15 7.06 15 4 15 C4 17.31 4 19.62 4 22 C6.97 22 9.94 22 13 22 C13 22.99 13 23.98 13 25 C8.71 25 4.42 25 0 25 C0 16.75 0 8.5 0 0 Z " fill="#F3F3F3" transform="translate(1047,363)"/>
<path d="M0 0 C5.61 0 11.22 0 17 0 C17 1.32 17 2.64 17 4 C15.02 4 13.04 4 11 4 C11 11.26 11 18.52 11 26 C9.35 26 7.7 26 6 26 C6 18.74 6 11.48 6 4 C4.02 4 2.04 4 0 4 C0 2.68 0 1.36 0 0 Z " fill="#DDDDDD" transform="translate(1154,363)"/>
<path d="M0 0 C5.61 0 11.22 0 17 0 C17 1.32 17 2.64 17 4 C15.02 4 13.04 4 11 4 C11 10.93 11 17.86 11 25 C9.35 25.33 7.7 25.66 6 26 C6 18.74 6 11.48 6 4 C4.02 4 2.04 4 0 4 C0 2.68 0 1.36 0 0 Z " fill="#DDDDDD" transform="translate(927,363)"/>
<path d="M0 0 C5.61 0 11.22 0 17 0 C17 1.32 17 2.64 17 4 C15.02 4 13.04 4 11 4 C11 10.93 11 17.86 11 25 C9.35 25 7.7 25 6 25 C6 18.07 6 11.14 6 4 C4.02 4 2.04 4 0 4 C0 2.68 0 1.36 0 0 Z " fill="#E2E2E2" transform="translate(452,363)"/>
<path d="M0 0 C1.0712828 6.02596573 1.09945415 11.88909517 1 18 C-1.46325392 17.07403228 -3.9200367 16.1349904 -6.375 15.1875 C-7.07367188 14.92646484 -7.77234375 14.66542969 -8.4921875 14.39648438 C-12.12525926 12.98168239 -13.78468531 12.32297203 -16 9 C-14.54692845 6.09385689 -12.40708052 5.44301921 -9.5625 3.9375 C-8.57378906 3.41027344 -7.58507812 2.88304687 -6.56640625 2.33984375 C-2.0845481 0 -2.0845481 0 0 0 Z " fill="#E611D3" transform="translate(183,279)"/>
<path d="M0 0 C7 0 7 0 10 2 C11.72723028 5.45446055 11.34946969 9.21631853 11 13 C10 15.5625 10 15.5625 8 17 C5.36 17 2.72 17 0 17 C0 11.39 0 5.78 0 0 Z " fill="#222222" transform="translate(727,367)"/>
<path d="M0 0 C1.65 0 3.3 0 5 0 C9 6.75 9 6.75 9 9 C9.66 9 10.32 9 11 9 C11.28875 8.2575 11.5775 7.515 11.875 6.75 C12.82302644 4.43260203 13.84845911 2.22082885 15 0 C16.65 0 18.3 0 20 0 C18.87586135 3.27022153 17.44239446 5.78693802 15.4375 8.5625 C12.10600609 13.66752449 12.10911539 19.04825139 12 25 C10.68 25 9.36 25 8 25 C8.00902344 24.26136719 8.01804687 23.52273438 8.02734375 22.76171875 C7.8020304 15.05208384 5.99593704 10.42695485 1.49609375 4.1796875 C0 2 0 2 0 0 Z " fill="#F2F2F2" transform="translate(1182,363)"/>
<path d="M0 0 C1.65 0 3.3 0 5 0 C5 8.25 5 16.5 5 25 C3.35 25.33 1.7 25.66 0 26 C0 17.42 0 8.84 0 0 Z " fill="#D3D3D3" transform="translate(1136,363)"/>
<path d="M0 0 C1.32 0 2.64 0 4 0 C4 7.26 4 14.52 4 22 C6.64 22 9.28 22 12 22 C12 22.99 12 23.98 12 25 C8.04 25 4.08 25 0 25 C0 16.75 0 8.5 0 0 Z " fill="#F7F7F7" transform="translate(1110,363)"/>
<path d="M0 0 C0.33 0 0.66 0 1 0 C1 6.93 1 13.86 1 21 C3.31 21 5.62 21 8 21 C8 21.33 8 21.66 8 22 C2.54230189 22.11138159 -2.61509359 21.91657981 -8 21 C-5.72564796 13.81783567 -2.96415819 6.9241798 0 0 Z " fill="#41283E" transform="translate(1383,221)"/>
<path d="M0 0 C0.33 0 0.66 0 1 0 C1 6.93 1 13.86 1 21 C3.31 21 5.62 21 8 21 C8 21.33 8 21.66 8 22 C6.64595503 22.02763357 5.29173445 22.04667422 3.9375 22.0625 C3.18339844 22.07410156 2.42929687 22.08570313 1.65234375 22.09765625 C-1.58364877 21.97851072 -4.79436022 21.45794854 -8 21 C-5.36 14.07 -2.72 7.14 0 0 Z " fill="#212427" transform="translate(720,221)"/>
<path d="M0 0 C1.32 0 2.64 0 4 0 C4 8.25 4 16.5 4 25 C2.68 25 1.36 25 0 25 C0 16.75 0 8.5 0 0 Z " fill="#EFEFEF" transform="translate(872,363)"/>
<path d="M0 0 C1.32 0 2.64 0 4 0 C4 8.25 4 16.5 4 25 C2.68 25 1.36 25 0 25 C0 16.75 0 8.5 0 0 Z " fill="#F6F6F6" transform="translate(702,363)"/>
<path d="M0 0 C1.32 0 2.64 0 4 0 C4 8.25 4 16.5 4 25 C2.68 25 1.36 25 0 25 C0 16.75 0 8.5 0 0 Z " fill="#F6F6F6" transform="translate(587,363)"/>
<path d="M0 0 C0.33 0 0.66 0 1 0 C1 6.6 1 13.2 1 20 C3.31 20 5.62 20 8 20 C8 20.33 8 20.66 8 21 C2.84828377 21.09038099 -1.91913204 20.84681133 -7 20 C-6.29937517 15.43263559 -4.68729793 11.4300495 -2.9375 7.1875 C-2.51500977 6.14819336 -2.51500977 6.14819336 -2.08398438 5.08789062 C-1.39325027 3.39032376 -0.69716272 1.69493688 0 0 Z " fill="#1F2325" transform="translate(620,222)"/>
<path d="M0 0 C0.33 0 0.66 0 1 0 C1 6.27 1 12.54 1 19 C3.31 19 5.62 19 8 19 C8 19.33 8 19.66 8 20 C2.84828377 20.09038099 -1.91913204 19.84681133 -7 19 C-5.17778624 12.38757278 -2.94776396 6.19479329 0 0 Z " fill="#2B282D" transform="translate(1087,223)"/>
<path d="M0 0 C5.75 -0.125 5.75 -0.125 8 1 C8.042721 2.66611905 8.04063832 4.33382885 8 6 C7 7 7 7 3.4375 7.0625 C2.303125 7.041875 1.16875 7.02125 0 7 C0 4.69 0 2.38 0 0 Z " fill="#202020" transform="translate(521,367)"/>
<path d="M0 0 C2.96052484 3.36423277 3.92289822 6.69159287 5 11 C2.36 11 -0.28 11 -3 11 C-2.44894091 7.0507432 -1.61064629 3.65079826 0 0 Z " fill="#353535" transform="translate(1084,368)"/>
<path d="M0 0 C2.875 -0.125 2.875 -0.125 6 0 C6.66 0.66 7.32 1.32 8 2 C7.46428571 5.53571429 7.46428571 5.53571429 6 7 C4.00041636 7.04080783 1.99954746 7.04254356 0 7 C0 4.69 0 2.38 0 0 Z " fill="#292929" transform="translate(1019,367)"/>
<path d="M0 0 C3.36338044 3.36338044 4 6.28835716 4 11 C1.69 11 -0.62 11 -3 11 C-2.69078116 9.54096742 -2.37751201 8.08279278 -2.0625 6.625 C-1.88847656 5.81289063 -1.71445312 5.00078125 -1.53515625 4.1640625 C-1 2 -1 2 0 0 Z " fill="#2E2E2E" transform="translate(795,368)"/>
<path d="M0 0 C0.66 0.33 1.32 0.66 2 1 C1.72285156 1.67546875 1.44570312 2.3509375 1.16015625 3.046875 C0.79792969 3.93890625 0.43570313 4.8309375 0.0625 5.75 C-0.29714844 6.63171875 -0.65679687 7.5134375 -1.02734375 8.421875 C-2.04797214 10.90916513 -2.04797214 10.90916513 -2.44140625 13.265625 C-2.71791016 14.12414062 -2.71791016 14.12414062 -3 15 C-3.99 15.33 -4.98 15.66 -6 16 C-3.10933941 4.29384966 -3.10933941 4.29384966 0 0 Z " fill="#9D41CB" transform="translate(150,355)"/>
<path d="M0 0 C3.31805658 0.80709484 6.66531109 0.92913183 10.0625 1.125 C10.75988281 1.16818359 11.45726563 1.21136719 12.17578125 1.25585938 C13.88781922 1.36139596 15.60013561 1.4623991 17.3125 1.5625 C17.3125 1.8925 17.3125 2.2225 17.3125 2.5625 C13.87507082 2.62052698 10.43776747 2.65610486 7 2.6875 C6.02353516 2.70425781 5.04707031 2.72101563 4.04101562 2.73828125 C3.10322266 2.74472656 2.16542969 2.75117188 1.19921875 2.7578125 C0.33514404 2.76828613 -0.52893066 2.77875977 -1.41918945 2.78955078 C-3.6875 2.5625 -3.6875 2.5625 -6.6875 0.5625 C-2.17840909 -0.56477273 -2.17840909 -0.56477273 0 0 Z " fill="#5088DE" transform="translate(113.6875,278.4375)"/>
<path d="M0 0 C0.33 0 0.66 0 1 0 C1 6.93 1 13.86 1 21 C0.67 21 0.34 21 0 21 C-0.06058594 20.09636719 -0.12117187 19.19273437 -0.18359375 18.26171875 C-0.26738281 17.08222656 -0.35117187 15.90273437 -0.4375 14.6875 C-0.51871094 13.51574219 -0.59992187 12.34398437 -0.68359375 11.13671875 C-0.8867371 7.97409042 -0.8867371 7.97409042 -2 5 C-1.0625 2.3125 -1.0625 2.3125 0 0 Z " fill="#26323D" transform="translate(720,221)"/>
</svg>
